<?xml version="1.0" encoding="UTF-8"?>
<!DOCTYPE svg PUBLIC "-//W3C//DTD SVG 1.1//EN" "http://www.w3.org/Graphics/SVG/1.1/DTD/svg11.dtd">
<svg version="1.2" width="400mm" height="157mm" viewBox="0 0 40000 15700" preserveAspectRatio="xMidYMid" fill-rule="evenodd" stroke-width="28.222" stroke-linejoin="round" xmlns="http://www.w3.org/2000/svg" xmlns:ooo="http://xml.openoffice.org/svg/export" xmlns:xlink="http://www.w3.org/1999/xlink" xmlns:presentation="http://sun.com/xmlns/staroffice/presentation" xmlns:smil="http://www.w3.org/2001/SMIL20/" xmlns:anim="urn:oasis:names:tc:opendocument:xmlns:animation:1.0" xml:space="preserve">
 <defs class="ClipPathGroup">
  <clipPath id="presentation_clip_path" clipPathUnits="userSpaceOnUse">
   <rect x="0" y="0" width="40000" height="15700"/>
  </clipPath>
  <clipPath id="presentation_clip_path_shrink" clipPathUnits="userSpaceOnUse">
   <rect x="40" y="15" width="39920" height="15669"/>
  </clipPath>
 </defs>
 <defs class="TextShapeIndex">
  <g ooo:slide="id1" ooo:id-list="id3"/>
 </defs>
 <defs class="EmbeddedBulletChars">
  <g id="bullet-char-template-57356" transform="scale(0.00048828125,-0.00048828125)">
   <path d="M 580,1141 L 1163,571 580,0 -4,571 580,1141 Z"/>
  </g>
  <g id="bullet-char-template-57354" transform="scale(0.00048828125,-0.00048828125)">
   <path d="M 8,1128 L 1137,1128 1137,0 8,0 8,1128 Z"/>
  </g>
  <g id="bullet-char-template-10146" transform="scale(0.00048828125,-0.00048828125)">
   <path d="M 174,0 L 602,739 174,1481 1456,739 174,0 Z M 1358,739 L 309,1346 659,739 1358,739 Z"/>
  </g>
  <g id="bullet-char-template-10132" transform="scale(0.00048828125,-0.00048828125)">
   <path d="M 2015,739 L 1276,0 717,0 1260,543 174,543 174,936 1260,936 717,1481 1274,1481 2015,739 Z"/>
  </g>
  <g id="bullet-char-template-10007" transform="scale(0.00048828125,-0.00048828125)">
   <path d="M 0,-2 C -7,14 -16,27 -25,37 L 356,567 C 262,823 215,952 215,954 215,979 228,992 255,992 264,992 276,990 289,987 310,991 331,999 354,1012 L 381,999 492,748 772,1049 836,1024 860,1049 C 881,1039 901,1025 922,1006 886,937 835,863 770,784 769,783 710,716 594,584 L 774,223 C 774,196 753,168 711,139 L 727,119 C 717,90 699,76 672,76 641,76 570,178 457,381 L 164,-76 C 142,-110 111,-127 72,-127 30,-127 9,-110 8,-76 1,-67 -2,-52 -2,-32 -2,-23 -1,-13 0,-2 Z"/>
  </g>
  <g id="bullet-char-template-10004" transform="scale(0.00048828125,-0.00048828125)">
   <path d="M 285,-33 C 182,-33 111,30 74,156 52,228 41,333 41,471 41,549 55,616 82,672 116,743 169,778 240,778 293,778 328,747 346,684 L 369,508 C 377,444 397,411 428,410 L 1163,1116 C 1174,1127 1196,1133 1229,1133 1271,1133 1292,1118 1292,1087 L 1292,965 C 1292,929 1282,901 1262,881 L 442,47 C 390,-6 338,-33 285,-33 Z"/>
  </g>
  <g id="bullet-char-template-9679" transform="scale(0.00048828125,-0.00048828125)">
   <path d="M 813,0 C 632,0 489,54 383,161 276,268 223,411 223,592 223,773 276,916 383,1023 489,1130 632,1184 813,1184 992,1184 1136,1130 1245,1023 1353,916 1407,772 1407,592 1407,412 1353,268 1245,161 1136,54 992,0 813,0 Z"/>
  </g>
  <g id="bullet-char-template-8226" transform="scale(0.00048828125,-0.00048828125)">
   <path d="M 346,457 C 273,457 209,483 155,535 101,586 74,649 74,723 74,796 101,859 155,911 209,963 273,989 346,989 419,989 480,963 531,910 582,859 608,796 608,723 608,648 583,586 532,535 482,483 420,457 346,457 Z"/>
  </g>
  <g id="bullet-char-template-8211" transform="scale(0.00048828125,-0.00048828125)">
   <path d="M -4,459 L 1135,459 1135,606 -4,606 -4,459 Z"/>
  </g>
  <g id="bullet-char-template-61548" transform="scale(0.00048828125,-0.00048828125)">
   <path d="M 173,740 C 173,903 231,1043 346,1159 462,1274 601,1332 765,1332 928,1332 1067,1274 1183,1159 1299,1043 1357,903 1357,740 1357,577 1299,437 1183,322 1067,206 928,148 765,148 601,148 462,206 346,322 231,437 173,577 173,740 Z"/>
  </g>
 </defs>
 <defs class="TextEmbeddedBitmaps"/>
 <g>
  <g id="id2" class="Master_Slide">
   <g id="bg-id2" class="Background"/>
   <g id="bo-id2" class="BackgroundObjects"/>
  </g>
 </g>
 <g class="SlideGroup">
  <g>
   <g id="container-id1">
    <g id="id1" class="Slide" clip-path="url(#presentation_clip_path)">
     <g class="Page">
      <g class="Group">
       <g class="com.sun.star.drawing.ClosedBezierShape">
        <g id="id3">
         <rect class="BoundingBox" stroke="none" fill="none" x="0" y="500" width="39995" height="15105"/>
         <path fill="rgb(255,0,0)" stroke="none" d="M 24200,8360 C 24316,10046 27425,9518 26343,12577 25941,13716 24963,14822 23871,15194 22908,15523 22010,15259 21492,14586 20569,13388 21368,11547 22360,10917 L 23151,11365 C 23112,10451 22889,9372 24200,8360 Z M 20174,9000 L 17825,9024 17825,7214 22478,6813 22478,8623 20174,9000 Z M 16569,11472 L 13399,10670 13399,8861 19735,9809 19735,11617 16569,11472 Z M 15165,8614 L 13399,8085 13399,6276 16938,7128 16938,8938 15165,8614 Z M 20610,9733 L 22505,9393 C 22398,9653 22335,9910 22299,10157 21754,10317 21118,10996 20790,11519 L 20610,11542 20610,9733 Z M 26591,9377 C 26129,9015 25580,8796 25254,8451 L 26591,7790 26591,9377 Z M 20397,12340 C 20155,13056 20157,13776 20385,14409 L 17825,14452 17825,12384 20397,12340 Z M 13399,13126 L 13399,11445 16938,12298 16938,14366 13839,13665 C 13596,13585 13399,13340 13399,13126 Z M 23325,6583 L 26591,5205 26591,7014 24975,7797 C 24854,7525 24543,7459 24200,7584 23921,7686 23556,8001 23325,8222 L 23325,6583 Z M 13839,3583 L 19735,4380 19735,6448 13399,5501 13399,3820 C 13399,3606 13596,3503 13839,3583 Z M 26195,2572 C 26414,2458 26591,2535 26591,2749 L 26591,4430 20610,6373 20610,4304 26195,2572 Z M 8353,3789 C 9867,3645 11386,3573 12905,3573 L 12905,5295 C 11386,5295 9867,5367 8353,5511 L 8353,3789 Z M 0,5328 C 2224,4715 4477,4262 6743,3970 L 6743,5692 C 4477,5984 2224,6437 0,7050 L 0,5328 Z M 5609,6982 C 8029,6611 10467,6425 12905,6425 L 12905,8148 C 10467,8148 8029,8334 5609,8704 L 5609,6982 Z M 3533,10196 C 5329,9841 7138,9588 8952,9439 L 8952,11161 C 7138,11310 5329,11563 3533,11918 L 3533,10196 Z M 10147,9355 C 11065,9302 11985,9276 12905,9276 L 12905,10997 C 11985,10997 11065,11024 10147,11076 L 10147,9355 Z M 7039,12486 C 8988,12248 10946,12127 12905,12127 L 12905,13849 C 10946,13849 8988,13969 7039,14208 L 7039,12486 Z M 0,8180 C 1346,7810 2703,7497 4066,7243 L 4066,8966 C 2703,9220 1346,9532 0,9903 L 0,8180 Z M 0,13882 C 1814,13383 3647,12989 5490,12702 L 5490,14424 C 3647,14710 1814,15104 0,15604 L 0,13882 Z M 0,11032 C 800,10811 1603,10612 2410,10433 L 2410,12155 C 1603,12334 800,12533 0,12753 L 0,11032 Z M 35442,716 C 36956,572 38474,500 39993,500 L 39993,2223 C 38474,2223 36956,2294 35442,2438 L 35442,716 Z M 27089,2255 C 29313,1642 31565,1189 33831,897 L 33831,2619 C 31565,2912 29313,3365 27089,3978 L 27089,2255 Z M 32698,3909 C 35117,3539 37556,3352 39994,3352 L 39994,5075 C 37556,5075 35117,5261 32698,5632 L 32698,3909 Z M 30622,7123 C 32418,6768 34226,6516 36041,6366 L 36041,8088 C 34226,8237 32418,8490 30622,8845 L 30622,7123 Z M 37236,6282 C 38154,6229 39073,6203 39993,6203 L 39993,7925 C 39073,7925 38154,7951 37236,8004 L 37236,6282 Z M 34128,9414 C 36077,9175 38035,9055 39993,9055 L 39993,10776 C 38035,10776 36077,10897 34128,11135 L 34128,9414 Z M 27089,5107 C 28435,4737 29792,4424 31155,4171 L 31155,5893 C 29792,6147 28435,6459 27089,6830 L 27089,5107 Z M 27089,10810 C 28903,10310 30736,9916 32579,9630 L 32579,11351 C 30736,11637 28903,12032 27089,12531 L 27089,10810 Z M 27089,7959 C 27889,7739 28692,7539 29499,7360 L 29499,9082 C 28692,9261 27889,9460 27089,9681 L 27089,7959 Z"/>
        </g>
       </g>
      </g>
     </g>
    </g>
   </g>
  </g>
 </g>
</svg>