<?xml version="1.0" encoding="UTF-8"?>
<!DOCTYPE svg PUBLIC "-//W3C//DTD SVG 1.1//EN" "http://www.w3.org/Graphics/SVG/1.1/DTD/svg11.dtd">
<svg version="1.2" width="135.73mm" height="135.73mm" viewBox="0 0 13573 13573" preserveAspectRatio="xMidYMid" fill-rule="evenodd" stroke-width="28.222" stroke-linejoin="round" xmlns="http://www.w3.org/2000/svg" xmlns:ooo="http://xml.openoffice.org/svg/export" xmlns:xlink="http://www.w3.org/1999/xlink" xmlns:presentation="http://sun.com/xmlns/staroffice/presentation" xmlns:smil="http://www.w3.org/2001/SMIL20/" xmlns:anim="urn:oasis:names:tc:opendocument:xmlns:animation:1.0" xml:space="preserve">
 <defs class="ClipPathGroup">
  <clipPath id="presentation_clip_path" clipPathUnits="userSpaceOnUse">
   <rect x="0" y="0" width="13573" height="13573"/>
  </clipPath>
  <clipPath id="presentation_clip_path_shrink" clipPathUnits="userSpaceOnUse">
   <rect x="13" y="13" width="13546" height="13546"/>
  </clipPath>
 </defs>
 <defs class="TextShapeIndex">
  <g ooo:slide="id1" ooo:id-list="id3 id4 id5 id6 id7 id8 id9 id10 id11 id12 id13"/>
 </defs>
 <defs class="EmbeddedBulletChars">
  <g id="bullet-char-template-57356" transform="scale(0.00048828125,-0.00048828125)">
   <path d="M 580,1141 L 1163,571 580,0 -4,571 580,1141 Z"/>
  </g>
  <g id="bullet-char-template-57354" transform="scale(0.00048828125,-0.00048828125)">
   <path d="M 8,1128 L 1137,1128 1137,0 8,0 8,1128 Z"/>
  </g>
  <g id="bullet-char-template-10146" transform="scale(0.00048828125,-0.00048828125)">
   <path d="M 174,0 L 602,739 174,1481 1456,739 174,0 Z M 1358,739 L 309,1346 659,739 1358,739 Z"/>
  </g>
  <g id="bullet-char-template-10132" transform="scale(0.00048828125,-0.00048828125)">
   <path d="M 2015,739 L 1276,0 717,0 1260,543 174,543 174,936 1260,936 717,1481 1274,1481 2015,739 Z"/>
  </g>
  <g id="bullet-char-template-10007" transform="scale(0.00048828125,-0.00048828125)">
   <path d="M 0,-2 C -7,14 -16,27 -25,37 L 356,567 C 262,823 215,952 215,954 215,979 228,992 255,992 264,992 276,990 289,987 310,991 331,999 354,1012 L 381,999 492,748 772,1049 836,1024 860,1049 C 881,1039 901,1025 922,1006 886,937 835,863 770,784 769,783 710,716 594,584 L 774,223 C 774,196 753,168 711,139 L 727,119 C 717,90 699,76 672,76 641,76 570,178 457,381 L 164,-76 C 142,-110 111,-127 72,-127 30,-127 9,-110 8,-76 1,-67 -2,-52 -2,-32 -2,-23 -1,-13 0,-2 Z"/>
  </g>
  <g id="bullet-char-template-10004" transform="scale(0.00048828125,-0.00048828125)">
   <path d="M 285,-33 C 182,-33 111,30 74,156 52,228 41,333 41,471 41,549 55,616 82,672 116,743 169,778 240,778 293,778 328,747 346,684 L 369,508 C 377,444 397,411 428,410 L 1163,1116 C 1174,1127 1196,1133 1229,1133 1271,1133 1292,1118 1292,1087 L 1292,965 C 1292,929 1282,901 1262,881 L 442,47 C 390,-6 338,-33 285,-33 Z"/>
  </g>
  <g id="bullet-char-template-9679" transform="scale(0.00048828125,-0.00048828125)">
   <path d="M 813,0 C 632,0 489,54 383,161 276,268 223,411 223,592 223,773 276,916 383,1023 489,1130 632,1184 813,1184 992,1184 1136,1130 1245,1023 1353,916 1407,772 1407,592 1407,412 1353,268 1245,161 1136,54 992,0 813,0 Z"/>
  </g>
  <g id="bullet-char-template-8226" transform="scale(0.00048828125,-0.00048828125)">
   <path d="M 346,457 C 273,457 209,483 155,535 101,586 74,649 74,723 74,796 101,859 155,911 209,963 273,989 346,989 419,989 480,963 531,910 582,859 608,796 608,723 608,648 583,586 532,535 482,483 420,457 346,457 Z"/>
  </g>
  <g id="bullet-char-template-8211" transform="scale(0.00048828125,-0.00048828125)">
   <path d="M -4,459 L 1135,459 1135,606 -4,606 -4,459 Z"/>
  </g>
  <g id="bullet-char-template-61548" transform="scale(0.00048828125,-0.00048828125)">
   <path d="M 173,740 C 173,903 231,1043 346,1159 462,1274 601,1332 765,1332 928,1332 1067,1274 1183,1159 1299,1043 1357,903 1357,740 1357,577 1299,437 1183,322 1067,206 928,148 765,148 601,148 462,206 346,322 231,437 173,577 173,740 Z"/>
  </g>
 </defs>
 <defs class="TextEmbeddedBitmaps"/>
 <g>
  <g id="id2" class="Master_Slide">
   <g id="bg-id2" class="Background"/>
   <g id="bo-id2" class="BackgroundObjects"/>
  </g>
 </g>
 <g class="SlideGroup">
  <g>
   <g id="container-id1">
    <g id="id1" class="Slide" clip-path="url(#presentation_clip_path)">
     <g class="Page">
      <g class="Group">
       <g class="com.sun.star.drawing.PolyPolygonShape">
        <g id="id3">
         <rect class="BoundingBox" stroke="none" fill="none" x="7707" y="5756" width="5833" height="7655"/>
         <path fill="rgb(255,0,0)" stroke="none" d="M 10949,5757 L 10706,5879 10499,6018 10325,6172 10181,6339 10065,6517 9974,6705 9906,6902 9856,7105 9824,7314 9806,7526 9801,7956 9841,8789 9019,8043 8830,8146 8648,8281 8475,8446 8314,8638 8167,8855 8037,9093 7925,9349 7834,9621 7766,9906 7723,10201 7708,10503 7723,10809 7769,11117 7851,11423 7969,11725 8125,12020 8229,12179 8342,12330 8463,12471 8592,12604 8729,12728 8872,12842 9023,12946 9179,13041 9341,13125 9509,13199 9681,13262 9858,13314 10039,13355 10223,13385 10410,13403 10600,13409 10816,13401 11028,13377 11238,13337 11443,13282 11643,13213 11837,13129 12025,13033 12205,12923 12377,12801 12540,12668 12693,12523 12835,12367 12966,12201 13084,12025 13190,11841 13281,11647 13455,11136 13505,10894 13532,10661 13538,10437 13525,10220 13492,10011 13443,9809 13300,9422 13106,9058 12874,8711 12614,8378 11535,7109 11313,6789 11134,6459 11064,6289 11009,6116 10970,5939 10949,5757 Z"/>
        </g>
       </g>
       <g class="com.sun.star.drawing.PolyPolygonShape">
        <g id="id4">
         <rect class="BoundingBox" stroke="none" fill="none" x="4429" y="3400" width="4714" height="2063"/>
         <path fill="rgb(255,0,0)" stroke="none" d="M 6786,5462 L 4430,5462 4430,3401 9141,3401 9141,5462 6786,5462 Z"/>
        </g>
       </g>
       <g class="com.sun.star.drawing.PolyPolygonShape">
        <g id="id5">
         <rect class="BoundingBox" stroke="none" fill="none" x="12" y="6345" width="6333" height="2063"/>
         <path fill="rgb(255,0,0)" stroke="none" d="M 3179,8406 L 13,8406 13,6346 6344,6346 6344,8406 3179,8406 Z"/>
        </g>
       </g>
       <g class="com.sun.star.drawing.PolyPolygonShape">
        <g id="id6">
         <rect class="BoundingBox" stroke="none" fill="none" x="12" y="3400" width="3536" height="2063"/>
         <path fill="rgb(255,0,0)" stroke="none" d="M 1780,5462 L 13,5462 13,3401 3547,3401 3547,5462 1780,5462 Z"/>
        </g>
       </g>
       <g class="com.sun.star.drawing.PolyPolygonShape">
        <g id="id7">
         <rect class="BoundingBox" stroke="none" fill="none" x="7227" y="6345" width="1943" height="2063"/>
         <path fill="rgb(255,0,0)" stroke="none" d="M 7227,6346 L 7227,8406 7410,8406 7549,8197 7713,7986 7897,7782 8097,7594 8201,7508 8308,7429 8415,7358 8524,7296 8633,7245 8742,7205 8850,7177 8956,7162 8989,6957 9034,6752 9062,6649 9093,6547 9129,6446 9168,6346 7227,6346 Z"/>
        </g>
       </g>
       <g class="com.sun.star.drawing.PolyPolygonShape">
        <g id="id8">
         <rect class="BoundingBox" stroke="none" fill="none" x="12082" y="6345" width="1478" height="1810"/>
         <path fill="rgb(255,0,0)" stroke="none" d="M 13558,8153 L 13558,6346 12082,6346 12226,6555 12390,6765 12759,7197 13159,7655 13361,7898 13558,8153 Z"/>
        </g>
       </g>
       <g class="com.sun.star.drawing.PolyPolygonShape">
        <g id="id9">
         <rect class="BoundingBox" stroke="none" fill="none" x="4429" y="9289" width="2584" height="2358"/>
         <path fill="rgb(255,0,0)" stroke="none" d="M 7011,9289 L 4430,9289 4430,11645 6999,11645 6924,11362 6869,11073 6837,10779 6827,10483 6839,10184 6874,9885 6931,9586 7011,9289 Z"/>
        </g>
       </g>
       <g class="com.sun.star.drawing.PolyPolygonShape">
        <g id="id10">
         <rect class="BoundingBox" stroke="none" fill="none" x="12" y="9289" width="3536" height="2358"/>
         <path fill="rgb(255,0,0)" stroke="none" d="M 13,11203 L 15,11248 22,11292 33,11335 48,11375 66,11414 89,11450 114,11484 142,11516 174,11544 208,11570 244,11592 283,11610 324,11625 366,11636 410,11643 455,11645 3547,11645 3547,9289 13,9289 13,11203 Z"/>
        </g>
       </g>
       <g class="com.sun.star.drawing.PolyPolygonShape">
        <g id="id11">
         <rect class="BoundingBox" stroke="none" fill="none" x="10024" y="3400" width="3536" height="2063"/>
         <path fill="rgb(255,0,0)" stroke="none" d="M 10024,3401 L 10024,5268 10121,5201 10229,5133 10345,5067 10466,5005 10589,4952 10713,4910 10774,4894 10834,4883 10892,4875 10949,4873 11017,4875 11084,4883 11150,4896 11214,4913 11277,4935 11337,4962 11396,4994 11452,5030 11505,5070 11555,5114 11602,5162 11645,5215 11685,5271 11721,5331 11752,5395 11779,5462 13558,5462 13558,3401 10024,3401 Z"/>
        </g>
       </g>
       <g class="com.sun.star.drawing.PolyPolygonShape">
        <g id="id12">
         <rect class="BoundingBox" stroke="none" fill="none" x="12" y="161" width="6333" height="2358"/>
         <path fill="rgb(255,0,0)" stroke="none" d="M 455,162 L 410,164 366,171 324,182 283,197 244,215 208,237 174,263 142,291 114,323 89,357 66,393 48,432 33,473 22,515 15,559 13,604 13,2518 6344,2518 6344,162 455,162 Z"/>
        </g>
       </g>
       <g class="com.sun.star.drawing.PolyPolygonShape">
        <g id="id13">
         <rect class="BoundingBox" stroke="none" fill="none" x="7227" y="161" width="6333" height="2358"/>
         <path fill="rgb(255,0,0)" stroke="none" d="M 13116,162 L 7227,162 7227,2518 13558,2518 13558,604 13556,559 13549,515 13538,473 13523,432 13505,393 13482,357 13457,323 13429,291 13397,263 13363,237 13327,215 13288,197 13247,182 13205,171 13161,164 13116,162 Z"/>
        </g>
       </g>
      </g>
     </g>
    </g>
   </g>
  </g>
 </g>
</svg>