<?xml version="1.0" encoding="UTF-8"?>
<!DOCTYPE svg PUBLIC "-//W3C//DTD SVG 1.1//EN" "http://www.w3.org/Graphics/SVG/1.1/DTD/svg11.dtd">
<svg version="1.2" width="24.08mm" height="24.08mm" viewBox="0 0 2408 2408" preserveAspectRatio="xMidYMid" fill-rule="evenodd" stroke-width="28.222" stroke-linejoin="round" xmlns="http://www.w3.org/2000/svg" xmlns:ooo="http://xml.openoffice.org/svg/export" xmlns:xlink="http://www.w3.org/1999/xlink" xmlns:presentation="http://sun.com/xmlns/staroffice/presentation" xmlns:smil="http://www.w3.org/2001/SMIL20/" xmlns:anim="urn:oasis:names:tc:opendocument:xmlns:animation:1.0" xml:space="preserve">
 <defs class="ClipPathGroup">
  <clipPath id="presentation_clip_path" clipPathUnits="userSpaceOnUse">
   <rect x="0" y="0" width="2408" height="2408"/>
  </clipPath>
  <clipPath id="presentation_clip_path_shrink" clipPathUnits="userSpaceOnUse">
   <rect x="2" y="2" width="2404" height="2404"/>
  </clipPath>
 </defs>
 <defs class="TextShapeIndex">
  <g ooo:slide="id1" ooo:id-list="id3 id4 id5"/>
 </defs>
 <defs class="EmbeddedBulletChars">
  <g id="bullet-char-template-57356" transform="scale(0.00048828125,-0.00048828125)">
   <path d="M 580,1141 L 1163,571 580,0 -4,571 580,1141 Z"/>
  </g>
  <g id="bullet-char-template-57354" transform="scale(0.00048828125,-0.00048828125)">
   <path d="M 8,1128 L 1137,1128 1137,0 8,0 8,1128 Z"/>
  </g>
  <g id="bullet-char-template-10146" transform="scale(0.00048828125,-0.00048828125)">
   <path d="M 174,0 L 602,739 174,1481 1456,739 174,0 Z M 1358,739 L 309,1346 659,739 1358,739 Z"/>
  </g>
  <g id="bullet-char-template-10132" transform="scale(0.00048828125,-0.00048828125)">
   <path d="M 2015,739 L 1276,0 717,0 1260,543 174,543 174,936 1260,936 717,1481 1274,1481 2015,739 Z"/>
  </g>
  <g id="bullet-char-template-10007" transform="scale(0.00048828125,-0.00048828125)">
   <path d="M 0,-2 C -7,14 -16,27 -25,37 L 356,567 C 262,823 215,952 215,954 215,979 228,992 255,992 264,992 276,990 289,987 310,991 331,999 354,1012 L 381,999 492,748 772,1049 836,1024 860,1049 C 881,1039 901,1025 922,1006 886,937 835,863 770,784 769,783 710,716 594,584 L 774,223 C 774,196 753,168 711,139 L 727,119 C 717,90 699,76 672,76 641,76 570,178 457,381 L 164,-76 C 142,-110 111,-127 72,-127 30,-127 9,-110 8,-76 1,-67 -2,-52 -2,-32 -2,-23 -1,-13 0,-2 Z"/>
  </g>
  <g id="bullet-char-template-10004" transform="scale(0.00048828125,-0.00048828125)">
   <path d="M 285,-33 C 182,-33 111,30 74,156 52,228 41,333 41,471 41,549 55,616 82,672 116,743 169,778 240,778 293,778 328,747 346,684 L 369,508 C 377,444 397,411 428,410 L 1163,1116 C 1174,1127 1196,1133 1229,1133 1271,1133 1292,1118 1292,1087 L 1292,965 C 1292,929 1282,901 1262,881 L 442,47 C 390,-6 338,-33 285,-33 Z"/>
  </g>
  <g id="bullet-char-template-9679" transform="scale(0.00048828125,-0.00048828125)">
   <path d="M 813,0 C 632,0 489,54 383,161 276,268 223,411 223,592 223,773 276,916 383,1023 489,1130 632,1184 813,1184 992,1184 1136,1130 1245,1023 1353,916 1407,772 1407,592 1407,412 1353,268 1245,161 1136,54 992,0 813,0 Z"/>
  </g>
  <g id="bullet-char-template-8226" transform="scale(0.00048828125,-0.00048828125)">
   <path d="M 346,457 C 273,457 209,483 155,535 101,586 74,649 74,723 74,796 101,859 155,911 209,963 273,989 346,989 419,989 480,963 531,910 582,859 608,796 608,723 608,648 583,586 532,535 482,483 420,457 346,457 Z"/>
  </g>
  <g id="bullet-char-template-8211" transform="scale(0.00048828125,-0.00048828125)">
   <path d="M -4,459 L 1135,459 1135,606 -4,606 -4,459 Z"/>
  </g>
  <g id="bullet-char-template-61548" transform="scale(0.00048828125,-0.00048828125)">
   <path d="M 173,740 C 173,903 231,1043 346,1159 462,1274 601,1332 765,1332 928,1332 1067,1274 1183,1159 1299,1043 1357,903 1357,740 1357,577 1299,437 1183,322 1067,206 928,148 765,148 601,148 462,206 346,322 231,437 173,577 173,740 Z"/>
  </g>
 </defs>
 <defs class="TextEmbeddedBitmaps"/>
 <g>
  <g id="id2" class="Master_Slide">
   <g id="bg-id2" class="Background"/>
   <g id="bo-id2" class="BackgroundObjects"/>
  </g>
 </g>
 <g class="SlideGroup">
  <g>
   <g id="container-id1">
    <g id="id1" class="Slide" clip-path="url(#presentation_clip_path)">
     <g class="Page">
      <g class="Group">
       <g class="com.sun.star.drawing.PolyPolygonShape">
        <g id="id3">
         <rect class="BoundingBox" stroke="none" fill="none" x="1793" y="1852" width="169" height="283"/>
         <path fill="rgb(255,0,0)" stroke="none" d="M 1877,1852 L 1869,1853 1860,1854 1852,1856 1844,1859 1837,1862 1830,1866 1824,1871 1818,1877 1812,1883 1807,1889 1803,1896 1800,1903 1797,1911 1795,1919 1794,1928 1793,1936 1793,1941 1794,1947 1795,1952 1796,1957 1797,1962 1799,1966 1801,1971 1803,1976 1805,1980 1808,1984 1811,1988 1814,1992 1818,1996 1821,1999 1825,2002 1829,2005 1829,2133 1924,2133 1924,2005 1928,2002 1932,1999 1936,1996 1939,1992 1942,1988 1945,1984 1948,1980 1950,1976 1953,1971 1955,1966 1956,1962 1958,1957 1959,1952 1960,1947 1960,1941 1960,1936 1960,1928 1959,1919 1956,1911 1954,1903 1950,1896 1946,1889 1941,1883 1936,1877 1930,1871 1924,1866 1917,1862 1910,1859 1902,1856 1894,1854 1886,1853 1877,1852 Z"/>
        </g>
       </g>
       <g class="com.sun.star.drawing.PolyPolygonShape">
        <g id="id4">
         <rect class="BoundingBox" stroke="none" fill="none" x="12" y="1115" width="2383" height="1252"/>
         <path fill="rgb(255,0,0)" stroke="none" d="M 2299,1505 L 2293,1465 2284,1426 2271,1388 2255,1352 2235,1318 2213,1286 2188,1256 2161,1228 2131,1203 2099,1181 2065,1162 2029,1146 1992,1133 1953,1123 1913,1118 1871,1116 1839,1117 1808,1120 1777,1126 1748,1134 1719,1143 1691,1155 1664,1169 1639,1184 1614,1201 1591,1220 1569,1240 1549,1262 1530,1285 1513,1309 1497,1335 1483,1361 1354,1253 1130,1476 904,1253 773,1363 501,1488 486,1495 472,1503 458,1513 445,1523 432,1534 421,1546 410,1560 401,1574 13,2222 1349,2222 1350,2237 1353,2251 1356,2265 1361,2278 1368,2290 1375,2302 1383,2313 1393,2323 1403,2332 1414,2341 1426,2348 1439,2354 1452,2359 1466,2362 1480,2364 1494,2365 2247,2365 2262,2364 2277,2362 2291,2358 2304,2354 2317,2347 2329,2340 2340,2332 2350,2322 2360,2312 2368,2301 2375,2289 2382,2276 2386,2263 2390,2249 2392,2234 2393,2219 2393,1641 2393,1630 2391,1618 2389,1607 2386,1596 2382,1586 2378,1576 2373,1566 2367,1557 2360,1549 2353,1541 2345,1533 2337,1526 2328,1520 2319,1514 2309,1510 2299,1505 Z M 2253,2219 L 1500,2219 1500,1641 2043,1641 2043,1545 2042,1528 2040,1512 2036,1496 2030,1481 2023,1466 2015,1452 2005,1440 1994,1428 1983,1417 1970,1408 1956,1399 1942,1392 1926,1387 1911,1383 1894,1380 1877,1379 1860,1380 1844,1383 1828,1387 1813,1392 1798,1399 1784,1408 1771,1417 1759,1428 1749,1440 1739,1452 1731,1466 1724,1481 1718,1496 1714,1512 1711,1528 1710,1545 1710,1545 1592,1545 1592,1545 1594,1516 1598,1488 1605,1461 1615,1435 1627,1410 1641,1387 1658,1365 1676,1345 1696,1326 1718,1310 1742,1296 1767,1284 1793,1274 1820,1267 1848,1263 1877,1261 1906,1263 1934,1267 1962,1274 1988,1284 2013,1296 2036,1310 2058,1326 2078,1345 2096,1365 2113,1387 2127,1410 2139,1435 2148,1461 2155,1488 2160,1516 2161,1545 2161,1641 2253,1641 2253,2219 Z"/>
        </g>
       </g>
       <g class="com.sun.star.drawing.PolyPolygonShape">
        <g id="id5">
         <rect class="BoundingBox" stroke="none" fill="none" x="611" y="40" width="1037" height="1242"/>
         <path fill="rgb(255,0,0)" stroke="none" d="M 1128,1280 L 1128,1280 1129,1280 1129,1280 1130,1280 1130,1280 1130,1280 1131,1280 1131,1280 1189,1278 1244,1269 1296,1254 1345,1233 1390,1205 1432,1172 1471,1133 1506,1089 1537,1039 1565,983 1588,923 1608,857 1624,787 1636,712 1643,633 1646,549 1645,491 1638,436 1627,385 1612,337 1593,292 1569,251 1542,213 1510,179 1475,149 1436,122 1394,99 1348,79 1298,64 1246,52 1190,45 1132,41 1132,41 1130,41 1130,41 1130,41 1129,41 1129,41 1128,41 1128,41 1069,45 1013,52 960,64 911,79 865,99 822,122 783,149 748,179 716,213 689,251 665,292 646,337 631,385 620,436 614,491 612,549 615,633 622,712 634,787 650,857 670,923 694,983 721,1039 753,1089 788,1133 826,1172 869,1205 914,1233 963,1254 1015,1269 1070,1278 1128,1280 Z"/>
        </g>
       </g>
      </g>
     </g>
    </g>
   </g>
  </g>
 </g>
</svg>