<?xml version="1.0" encoding="UTF-8"?>
<!DOCTYPE svg PUBLIC "-//W3C//DTD SVG 1.1//EN" "http://www.w3.org/Graphics/SVG/1.1/DTD/svg11.dtd">
<svg version="1.2" width="168.44mm" height="168.44mm" viewBox="0 0 16844 16844" preserveAspectRatio="xMidYMid" fill-rule="evenodd" stroke-width="28.222" stroke-linejoin="round" xmlns="http://www.w3.org/2000/svg" xmlns:ooo="http://xml.openoffice.org/svg/export" xmlns:xlink="http://www.w3.org/1999/xlink" xmlns:presentation="http://sun.com/xmlns/staroffice/presentation" xmlns:smil="http://www.w3.org/2001/SMIL20/" xmlns:anim="urn:oasis:names:tc:opendocument:xmlns:animation:1.0" xml:space="preserve">
 <defs class="ClipPathGroup">
  <clipPath id="presentation_clip_path" clipPathUnits="userSpaceOnUse">
   <rect x="0" y="0" width="16844" height="16844"/>
  </clipPath>
  <clipPath id="presentation_clip_path_shrink" clipPathUnits="userSpaceOnUse">
   <rect x="16" y="16" width="16811" height="16811"/>
  </clipPath>
 </defs>
 <defs class="TextShapeIndex">
  <g ooo:slide="id1" ooo:id-list="id3 id4 id5 id6"/>
 </defs>
 <defs class="EmbeddedBulletChars">
  <g id="bullet-char-template-57356" transform="scale(0.00048828125,-0.00048828125)">
   <path d="M 580,1141 L 1163,571 580,0 -4,571 580,1141 Z"/>
  </g>
  <g id="bullet-char-template-57354" transform="scale(0.00048828125,-0.00048828125)">
   <path d="M 8,1128 L 1137,1128 1137,0 8,0 8,1128 Z"/>
  </g>
  <g id="bullet-char-template-10146" transform="scale(0.00048828125,-0.00048828125)">
   <path d="M 174,0 L 602,739 174,1481 1456,739 174,0 Z M 1358,739 L 309,1346 659,739 1358,739 Z"/>
  </g>
  <g id="bullet-char-template-10132" transform="scale(0.00048828125,-0.00048828125)">
   <path d="M 2015,739 L 1276,0 717,0 1260,543 174,543 174,936 1260,936 717,1481 1274,1481 2015,739 Z"/>
  </g>
  <g id="bullet-char-template-10007" transform="scale(0.00048828125,-0.00048828125)">
   <path d="M 0,-2 C -7,14 -16,27 -25,37 L 356,567 C 262,823 215,952 215,954 215,979 228,992 255,992 264,992 276,990 289,987 310,991 331,999 354,1012 L 381,999 492,748 772,1049 836,1024 860,1049 C 881,1039 901,1025 922,1006 886,937 835,863 770,784 769,783 710,716 594,584 L 774,223 C 774,196 753,168 711,139 L 727,119 C 717,90 699,76 672,76 641,76 570,178 457,381 L 164,-76 C 142,-110 111,-127 72,-127 30,-127 9,-110 8,-76 1,-67 -2,-52 -2,-32 -2,-23 -1,-13 0,-2 Z"/>
  </g>
  <g id="bullet-char-template-10004" transform="scale(0.00048828125,-0.00048828125)">
   <path d="M 285,-33 C 182,-33 111,30 74,156 52,228 41,333 41,471 41,549 55,616 82,672 116,743 169,778 240,778 293,778 328,747 346,684 L 369,508 C 377,444 397,411 428,410 L 1163,1116 C 1174,1127 1196,1133 1229,1133 1271,1133 1292,1118 1292,1087 L 1292,965 C 1292,929 1282,901 1262,881 L 442,47 C 390,-6 338,-33 285,-33 Z"/>
  </g>
  <g id="bullet-char-template-9679" transform="scale(0.00048828125,-0.00048828125)">
   <path d="M 813,0 C 632,0 489,54 383,161 276,268 223,411 223,592 223,773 276,916 383,1023 489,1130 632,1184 813,1184 992,1184 1136,1130 1245,1023 1353,916 1407,772 1407,592 1407,412 1353,268 1245,161 1136,54 992,0 813,0 Z"/>
  </g>
  <g id="bullet-char-template-8226" transform="scale(0.00048828125,-0.00048828125)">
   <path d="M 346,457 C 273,457 209,483 155,535 101,586 74,649 74,723 74,796 101,859 155,911 209,963 273,989 346,989 419,989 480,963 531,910 582,859 608,796 608,723 608,648 583,586 532,535 482,483 420,457 346,457 Z"/>
  </g>
  <g id="bullet-char-template-8211" transform="scale(0.00048828125,-0.00048828125)">
   <path d="M -4,459 L 1135,459 1135,606 -4,606 -4,459 Z"/>
  </g>
  <g id="bullet-char-template-61548" transform="scale(0.00048828125,-0.00048828125)">
   <path d="M 173,740 C 173,903 231,1043 346,1159 462,1274 601,1332 765,1332 928,1332 1067,1274 1183,1159 1299,1043 1357,903 1357,740 1357,577 1299,437 1183,322 1067,206 928,148 765,148 601,148 462,206 346,322 231,437 173,577 173,740 Z"/>
  </g>
 </defs>
 <defs class="TextEmbeddedBitmaps"/>
 <g>
  <g id="id2" class="Master_Slide">
   <g id="bg-id2" class="Background"/>
   <g id="bo-id2" class="BackgroundObjects"/>
  </g>
 </g>
 <g class="SlideGroup">
  <g>
   <g id="container-id1">
    <g id="id1" class="Slide" clip-path="url(#presentation_clip_path)">
     <g class="Page">
      <g class="Group">
       <g class="com.sun.star.drawing.PolyPolygonShape">
        <g id="id3">
         <rect class="BoundingBox" stroke="none" fill="none" x="5293" y="12" width="6257" height="7861"/>
         <path fill="rgb(255,0,0)" stroke="none" d="M 8421,7872 L 8740,7851 9050,7792 9350,7695 9637,7562 9910,7397 10168,7200 10409,6973 10631,6720 10833,6440 11013,6138 11170,5814 11302,5471 11407,5110 11485,4734 11532,4344 11548,3943 11532,3542 11485,3152 11407,2776 11302,2415 11170,2071 11013,1747 10833,1445 10631,1165 10409,912 10168,685 9910,488 9637,322 9349,190 9050,93 8740,33 8421,13 8101,33 7791,93 7492,190 7204,322 6931,488 6673,685 6433,912 6210,1165 6009,1445 5828,1747 5672,2071 5540,2415 5434,2776 5357,3152 5310,3542 5294,3943 5310,4344 5357,4734 5435,5110 5540,5471 5672,5814 5828,6138 6009,6440 6211,6720 6433,6973 6674,7200 6931,7397 7205,7562 7492,7695 7791,7792 8101,7851 8421,7872 Z"/>
        </g>
       </g>
       <g class="com.sun.star.drawing.PolyPolygonShape">
        <g id="id4">
         <rect class="BoundingBox" stroke="none" fill="none" x="1522" y="7544" width="13799" height="5737"/>
         <path fill="rgb(255,0,0)" stroke="none" d="M 1787,13279 L 3324,13279 3351,13278 3377,13274 3402,13267 3427,13258 3450,13247 3471,13234 3492,13219 3511,13201 3528,13183 3543,13162 3556,13140 3567,13117 3576,13093 3582,13068 3586,13041 3588,13014 3586,12987 3582,12961 3576,12936 3567,12911 3556,12888 3543,12867 3528,12846 3511,12827 3492,12810 3471,12795 3450,12782 3427,12771 3402,12762 3377,12756 3351,12752 3324,12750 2052,12750 2052,10264 2400,10228 2743,10165 3079,10080 3407,9974 3725,9851 4034,9714 4613,9408 5136,9081 5592,8755 5970,8454 6262,8202 6488,8448 6730,8665 6856,8763 6986,8852 7120,8934 7256,9007 7395,9073 7536,9130 7679,9179 7824,9219 7971,9251 8120,9273 8270,9287 8421,9291 8571,9287 8721,9273 8870,9251 9017,9219 9162,9179 9306,9130 9447,9073 9586,9007 9722,8934 9855,8852 9985,8763 10112,8665 10354,8448 10580,8202 10872,8454 11250,8755 11706,9081 12229,9408 12808,9714 13117,9851 13435,9974 13763,10080 14099,10165 14442,10228 14790,10264 14790,12750 13329,12750 13302,12752 13276,12756 13251,12762 13226,12771 13203,12782 13182,12795 13161,12810 13142,12827 13125,12846 13110,12867 13097,12888 13086,12911 13077,12936 13071,12961 13067,12987 13065,13014 13067,13041 13071,13068 13077,13093 13086,13117 13097,13140 13110,13162 13125,13183 13142,13201 13161,13219 13182,13234 13203,13247 13226,13258 13251,13267 13276,13274 13302,13278 13329,13279 15055,13279 15082,13278 15108,13274 15133,13267 15158,13258 15181,13247 15202,13234 15223,13219 15241,13201 15259,13183 15274,13162 15287,13140 15298,13117 15307,13093 15314,13068 15318,13041 15319,13014 15319,10008 15318,9981 15314,9955 15307,9930 15298,9906 15287,9882 15274,9861 15259,9840 15241,9822 15223,9805 15202,9789 15181,9776 15158,9765 15133,9756 15108,9750 15082,9746 15055,9744 14665,9723 14279,9662 13900,9567 13530,9443 13172,9295 12828,9130 12194,8764 11648,8388 11209,8044 10897,7773 10733,7620 10723,7610 10711,7601 10700,7592 10688,7584 10676,7577 10663,7571 10650,7565 10637,7560 10623,7555 10610,7552 10596,7549 10582,7547 10567,7545 10553,7545 10539,7545 10524,7546 10510,7547 10496,7550 10481,7553 10468,7557 10454,7562 10441,7567 10428,7573 10416,7580 10404,7587 10392,7596 10381,7604 10370,7614 10360,7624 10350,7634 10341,7645 10332,7657 10237,7785 10138,7906 10034,8020 9927,8126 9815,8225 9700,8316 9582,8399 9461,8474 9338,8540 9212,8599 9084,8648 8954,8689 8822,8722 8689,8745 8555,8759 8421,8763 8286,8759 8152,8745 8019,8722 7887,8690 7758,8649 7630,8599 7504,8541 7380,8474 7259,8399 7141,8316 7027,8225 6915,8126 6808,8020 6704,7906 6605,7785 6510,7657 6501,7645 6492,7634 6482,7624 6472,7614 6461,7604 6450,7596 6438,7587 6426,7580 6414,7573 6401,7567 6388,7562 6374,7557 6361,7553 6346,7550 6332,7547 6318,7546 6303,7545 6289,7545 6275,7545 6260,7547 6246,7549 6232,7552 6219,7555 6205,7560 6192,7565 6179,7571 6166,7577 6154,7584 6142,7592 6131,7601 6119,7610 6109,7620 5945,7773 5633,8044 5194,8388 4648,8764 4014,9130 3670,9295 3312,9443 2942,9567 2563,9662 2177,9723 1787,9744 1760,9746 1734,9750 1709,9756 1684,9765 1661,9776 1640,9789 1619,9805 1601,9822 1583,9840 1568,9861 1555,9882 1544,9906 1535,9930 1528,9955 1524,9981 1523,10008 1523,13014 1524,13041 1528,13068 1535,13093 1544,13117 1555,13140 1568,13162 1583,13183 1601,13201 1619,13219 1640,13234 1661,13247 1684,13258 1709,13267 1734,13274 1760,13278 1787,13279 Z"/>
        </g>
       </g>
       <g class="com.sun.star.drawing.PolyPolygonShape">
        <g id="id5">
         <rect class="BoundingBox" stroke="none" fill="none" x="7225" y="12427" width="2358" height="2359"/>
         <path fill="rgb(255,0,0)" stroke="none" d="M 7226,14784 L 9581,14784 9581,12427 9284,12427 7523,12427 7226,12427 7226,14784 Z M 7908,13392 L 7909,13365 7913,13339 7919,13314 7928,13289 7939,13266 7953,13244 7968,13224 7985,13205 8004,13188 8024,13173 8046,13159 8069,13148 8093,13139 8118,13133 8144,13129 8172,13127 8670,13127 8698,13129 8724,13133 8749,13139 8773,13148 8796,13159 8818,13173 8838,13188 8857,13205 8874,13224 8889,13244 8903,13266 8914,13289 8923,13314 8929,13339 8933,13365 8934,13392 8934,13890 8933,13917 8929,13943 8923,13969 8914,13993 8903,14016 8889,14038 8874,14059 8857,14077 8838,14095 8818,14110 8796,14123 8773,14134 8749,14143 8724,14150 8698,14154 8670,14155 8667,14155 8667,14318 8666,14345 8662,14371 8656,14397 8647,14421 8636,14444 8622,14466 8607,14486 8590,14505 8572,14522 8551,14537 8529,14550 8506,14561 8482,14570 8457,14577 8431,14581 8404,14582 8376,14581 8350,14577 8325,14570 8301,14561 8278,14550 8256,14537 8236,14522 8217,14505 8200,14486 8185,14466 8171,14444 8160,14421 8151,14397 8145,14371 8141,14345 8140,14318 8140,14148 8115,14144 8092,14138 8070,14130 8048,14120 8028,14108 8009,14095 7991,14080 7975,14063 7960,14046 7947,14027 7935,14006 7925,13985 7918,13963 7912,13939 7909,13915 7908,13890 7908,13392 Z"/>
        </g>
       </g>
       <g class="com.sun.star.drawing.PolyPolygonShape">
        <g id="id6">
         <rect class="BoundingBox" stroke="none" fill="none" x="4806" y="9599" width="7231" height="7232"/>
         <path fill="rgb(255,0,0)" stroke="none" d="M 4807,13214 L 4825,13583 4880,13942 4969,14288 5091,14620 5244,14936 5425,15234 5633,15512 5866,15769 6123,16002 6402,16211 6700,16392 7016,16544 7348,16666 7694,16755 8052,16810 8422,16829 8791,16810 9149,16755 9495,16666 9827,16544 10143,16392 10441,16211 10719,16002 10976,15769 11209,15512 11417,15234 11599,14936 11751,14620 11873,14288 11962,13942 12017,13583 12035,13214 12017,12845 11962,12486 11873,12140 11751,11808 11599,11492 11417,11194 11209,10916 10976,10659 10719,10426 10441,10217 10143,10036 9827,9884 9495,9762 9149,9673 8791,9618 8422,9599 8052,9618 7694,9673 7348,9762 7016,9884 6700,10036 6402,10217 6123,10426 5866,10659 5633,10916 5425,11194 5244,11492 5091,11808 4969,12140 4880,12486 4825,12845 4807,13214 Z M 9549,11148 L 9549,11557 9548,11584 9544,11611 9537,11636 9529,11660 9517,11683 9504,11705 9489,11726 9472,11745 9453,11762 9432,11777 9411,11790 9387,11801 9363,11810 9338,11817 9311,11821 9284,11822 9257,11821 9231,11817 9206,11810 9182,11801 9159,11790 9137,11777 9116,11762 9098,11745 9081,11726 9065,11705 9052,11683 9041,11660 9032,11636 9026,11611 9022,11584 9020,11557 9020,11412 7787,11412 7787,11899 9284,11899 9845,11899 9872,11901 9899,11905 9924,11911 9948,11920 9972,11931 9993,11944 10014,11960 10033,11977 10050,11995 10065,12016 10078,12037 10090,12060 10098,12085 10105,12110 10109,12136 10110,12163 10110,15048 10109,15075 10105,15101 10098,15127 10090,15151 10078,15174 10065,15196 10050,15216 10033,15235 10014,15252 9993,15267 9972,15280 9948,15291 9924,15300 9899,15307 9872,15311 9845,15312 6961,15312 6934,15311 6907,15307 6882,15300 6858,15291 6835,15280 6813,15267 6793,15252 6774,15235 6757,15216 6742,15196 6728,15174 6717,15151 6708,15127 6702,15101 6698,15075 6697,15048 6697,12163 6698,12136 6702,12110 6709,12085 6717,12060 6729,12037 6742,12016 6757,11995 6774,11977 6793,11960 6813,11944 6835,11931 6858,11920 6882,11911 6908,11905 6934,11901 6961,11899 7258,11899 7258,11148 7259,11121 7263,11095 7270,11070 7278,11046 7290,11022 7303,11001 7318,10980 7335,10962 7354,10945 7375,10929 7396,10916 7420,10905 7444,10896 7469,10890 7496,10886 7523,10884 9284,10884 9311,10886 9338,10890 9363,10896 9387,10905 9411,10916 9432,10929 9453,10945 9472,10962 9489,10980 9504,11001 9517,11022 9529,11046 9537,11070 9544,11095 9548,11121 9549,11148 Z"/>
        </g>
       </g>
      </g>
     </g>
    </g>
   </g>
  </g>
 </g>
</svg>