<?xml version="1.0" encoding="iso-8859-1"?>
<!-- Generator: Adobe Illustrator 16.0.0, SVG Export Plug-In . SVG Version: 6.00 Build 0)  -->
<!DOCTYPE svg PUBLIC "-//W3C//DTD SVG 1.1//EN" "http://www.w3.org/Graphics/SVG/1.1/DTD/svg11.dtd">
<svg version="1.1" id="Capa_1" xmlns="http://www.w3.org/2000/svg" xmlns:xlink="http://www.w3.org/1999/xlink" x="0px" y="0px"
	 width="48.074px" height="48.074px" viewBox="0 0 48.074 48.074" style="enable-background:new 0 0 48.074 48.074;"
	 xml:space="preserve">
<g>
	<path d="M29.985,5.175c-6.851-6.851-17.997-6.851-24.848,0c-6.85,6.85-6.85,17.997,0,24.847c6.309,6.31,16.25,6.792,23.136,1.482
		l2.258,2.256c-0.157,1.13,0.186,2.314,1.052,3.183l10.063,9.993c1.472,1.469,3.854,1.469,5.325,0c1.47-1.474,1.47-3.856,0-5.326
		l-10.064-9.992c-0.867-0.867-2.053-1.209-3.183-1.053l-2.255-2.257C36.777,21.425,36.295,11.481,29.985,5.175z M8.333,26.827
		c-5.089-5.089-5.089-13.369,0-18.458s13.369-5.089,18.458,0c5.088,5.09,5.088,13.37,0,18.458
		C21.702,31.915,13.421,31.915,8.333,26.827z M27.472,14.728c0.002,0.602-0.095,1.18-0.271,1.722
		c-0.388,1.763-2.058,3.721-3.898,5.416l0.01,2.96c0.002,0.761-0.61,1.378-1.372,1.381c-0.759,0.002-1.377-0.609-1.38-1.369
		l-0.002-0.684c-1.636,1.252-2.925,2.068-2.925,2.068s-0.701-0.438-1.726-1.16l0.009,2.452c0.001,0.606-0.489,1.102-1.097,1.104
		c-0.607,0.001-1.103-0.488-1.104-1.096l-0.017-4.112c-0.206-0.163-0.413-0.332-0.621-0.506l0.008,2.053
		c0.002,0.761-0.612,1.377-1.37,1.38c-0.76,0.005-1.379-0.607-1.381-1.37l-0.018-4.651c-1.146-1.253-2.051-2.569-2.327-3.792
		c-0.181-0.541-0.282-1.119-0.284-1.721c-0.008-2.106,1.15-3.943,2.868-4.901c0.8-0.443,1.717-0.7,2.693-0.704
		c1.73-0.006,3.279,0.774,4.31,2.005c1.018-1.238,2.563-2.03,4.289-2.037c0.979-0.003,1.897,0.247,2.698,0.684
		C26.29,10.794,27.464,12.622,27.472,14.728z"/>
</g>
<g>
</g>
<g>
</g>
<g>
</g>
<g>
</g>
<g>
</g>
<g>
</g>
<g>
</g>
<g>
</g>
<g>
</g>
<g>
</g>
<g>
</g>
<g>
</g>
<g>
</g>
<g>
</g>
<g>
</g>
</svg>
