<?xml version="1.0" encoding="UTF-8"?>
<!DOCTYPE svg PUBLIC "-//W3C//DTD SVG 1.1//EN" "http://www.w3.org/Graphics/SVG/1.1/DTD/svg11.dtd">
<svg version="1.2" width="12.7mm" height="12.7mm" viewBox="0 0 1270 1270" preserveAspectRatio="xMidYMid" fill-rule="evenodd" stroke-width="28.222" stroke-linejoin="round" xmlns="http://www.w3.org/2000/svg" xmlns:ooo="http://xml.openoffice.org/svg/export" xmlns:xlink="http://www.w3.org/1999/xlink" xmlns:presentation="http://sun.com/xmlns/staroffice/presentation" xmlns:smil="http://www.w3.org/2001/SMIL20/" xmlns:anim="urn:oasis:names:tc:opendocument:xmlns:animation:1.0" xml:space="preserve">
 <defs class="ClipPathGroup">
  <clipPath id="presentation_clip_path" clipPathUnits="userSpaceOnUse">
   <rect x="0" y="0" width="1270" height="1270"/>
  </clipPath>
  <clipPath id="presentation_clip_path_shrink" clipPathUnits="userSpaceOnUse">
   <rect x="1" y="1" width="1268" height="1268"/>
  </clipPath>
 </defs>
 <defs class="TextShapeIndex">
  <g ooo:slide="id1" ooo:id-list="id3"/>
 </defs>
 <defs class="EmbeddedBulletChars">
  <g id="bullet-char-template-57356" transform="scale(0.00048828125,-0.00048828125)">
   <path d="M 580,1141 L 1163,571 580,0 -4,571 580,1141 Z"/>
  </g>
  <g id="bullet-char-template-57354" transform="scale(0.00048828125,-0.00048828125)">
   <path d="M 8,1128 L 1137,1128 1137,0 8,0 8,1128 Z"/>
  </g>
  <g id="bullet-char-template-10146" transform="scale(0.00048828125,-0.00048828125)">
   <path d="M 174,0 L 602,739 174,1481 1456,739 174,0 Z M 1358,739 L 309,1346 659,739 1358,739 Z"/>
  </g>
  <g id="bullet-char-template-10132" transform="scale(0.00048828125,-0.00048828125)">
   <path d="M 2015,739 L 1276,0 717,0 1260,543 174,543 174,936 1260,936 717,1481 1274,1481 2015,739 Z"/>
  </g>
  <g id="bullet-char-template-10007" transform="scale(0.00048828125,-0.00048828125)">
   <path d="M 0,-2 C -7,14 -16,27 -25,37 L 356,567 C 262,823 215,952 215,954 215,979 228,992 255,992 264,992 276,990 289,987 310,991 331,999 354,1012 L 381,999 492,748 772,1049 836,1024 860,1049 C 881,1039 901,1025 922,1006 886,937 835,863 770,784 769,783 710,716 594,584 L 774,223 C 774,196 753,168 711,139 L 727,119 C 717,90 699,76 672,76 641,76 570,178 457,381 L 164,-76 C 142,-110 111,-127 72,-127 30,-127 9,-110 8,-76 1,-67 -2,-52 -2,-32 -2,-23 -1,-13 0,-2 Z"/>
  </g>
  <g id="bullet-char-template-10004" transform="scale(0.00048828125,-0.00048828125)">
   <path d="M 285,-33 C 182,-33 111,30 74,156 52,228 41,333 41,471 41,549 55,616 82,672 116,743 169,778 240,778 293,778 328,747 346,684 L 369,508 C 377,444 397,411 428,410 L 1163,1116 C 1174,1127 1196,1133 1229,1133 1271,1133 1292,1118 1292,1087 L 1292,965 C 1292,929 1282,901 1262,881 L 442,47 C 390,-6 338,-33 285,-33 Z"/>
  </g>
  <g id="bullet-char-template-9679" transform="scale(0.00048828125,-0.00048828125)">
   <path d="M 813,0 C 632,0 489,54 383,161 276,268 223,411 223,592 223,773 276,916 383,1023 489,1130 632,1184 813,1184 992,1184 1136,1130 1245,1023 1353,916 1407,772 1407,592 1407,412 1353,268 1245,161 1136,54 992,0 813,0 Z"/>
  </g>
  <g id="bullet-char-template-8226" transform="scale(0.00048828125,-0.00048828125)">
   <path d="M 346,457 C 273,457 209,483 155,535 101,586 74,649 74,723 74,796 101,859 155,911 209,963 273,989 346,989 419,989 480,963 531,910 582,859 608,796 608,723 608,648 583,586 532,535 482,483 420,457 346,457 Z"/>
  </g>
  <g id="bullet-char-template-8211" transform="scale(0.00048828125,-0.00048828125)">
   <path d="M -4,459 L 1135,459 1135,606 -4,606 -4,459 Z"/>
  </g>
  <g id="bullet-char-template-61548" transform="scale(0.00048828125,-0.00048828125)">
   <path d="M 173,740 C 173,903 231,1043 346,1159 462,1274 601,1332 765,1332 928,1332 1067,1274 1183,1159 1299,1043 1357,903 1357,740 1357,577 1299,437 1183,322 1067,206 928,148 765,148 601,148 462,206 346,322 231,437 173,577 173,740 Z"/>
  </g>
 </defs>
 <defs class="TextEmbeddedBitmaps"/>
 <g>
  <g id="id2" class="Master_Slide">
   <g id="bg-id2" class="Background"/>
   <g id="bo-id2" class="BackgroundObjects"/>
  </g>
 </g>
 <g class="SlideGroup">
  <g>
   <g id="container-id1">
    <g id="id1" class="Slide" clip-path="url(#presentation_clip_path)">
     <g class="Page">
      <g class="Group">
       <g class="com.sun.star.drawing.PolyPolygonShape">
        <g id="id3">
         <rect class="BoundingBox" stroke="none" fill="none" x="0" y="4" width="1269" height="1261"/>
         <path fill="rgb(255,0,0)" stroke="none" d="M 735,5 L 776,27 886,84 1053,160 1153,200 1261,239 1264,270 1268,354 1267,412 1262,479 1252,552 1236,631 1212,714 1180,799 1138,884 1085,969 1020,1050 941,1127 847,1199 737,1263 733,1263 701,1246 670,1228 640,1210 611,1191 584,1171 558,1151 533,1130 510,1109 591,1050 591,1081 591,1088 592,1094 593,1100 595,1106 598,1111 601,1117 605,1122 609,1126 613,1130 618,1134 623,1137 629,1140 635,1142 641,1144 647,1145 653,1145 660,1145 666,1144 672,1142 678,1140 684,1137 689,1134 694,1130 699,1126 703,1122 706,1117 710,1111 712,1106 715,1100 716,1094 717,1088 717,1081 717,945 749,916 779,885 807,854 832,822 855,790 874,759 881,743 888,727 893,712 897,696 900,687 903,677 905,668 907,658 909,648 910,637 910,627 910,617 910,598 908,581 905,564 901,547 895,530 889,514 882,499 873,484 864,470 854,457 843,444 831,432 819,420 806,410 792,400 777,392 763,384 749,378 734,372 718,368 703,364 687,362 670,360 653,360 639,360 624,361 610,363 595,366 582,370 568,374 555,379 542,385 530,391 518,398 506,406 495,414 484,423 474,432 465,442 456,453 446,442 437,432 426,423 416,414 404,406 393,398 381,391 368,385 355,379 342,374 329,370 315,366 301,363 286,361 272,360 257,360 243,360 229,361 216,363 209,364 203,366 203,313 205,273 208,248 209,239 318,201 419,161 586,85 696,28 735,5 Z M 203,366 L 194,368 184,370 176,373 167,376 158,380 150,383 141,387 133,392 118,400 105,410 91,420 79,432 67,444 56,457 46,470 37,484 29,499 21,514 15,530 10,547 5,564 2,581 1,598 0,617 0,627 1,637 2,648 3,658 5,668 7,677 10,687 13,696 16,707 19,718 27,739 38,761 51,783 66,805 82,827 100,849 119,871 119,1085 119,1092 120,1098 122,1104 124,1110 127,1115 130,1121 134,1126 138,1130 142,1134 147,1138 153,1141 158,1144 164,1146 170,1148 176,1149 183,1149 189,1149 196,1148 202,1146 207,1144 213,1141 218,1138 223,1134 227,1130 231,1126 235,1121 238,1115 241,1110 243,1104 245,1098 245,1092 246,1085 246,991 260,1003 267,1009 275,1014 275,1204 275,1209 276,1214 277,1219 279,1224 281,1228 283,1232 286,1236 289,1240 293,1243 297,1246 301,1249 305,1251 310,1253 315,1254 320,1255 325,1255 330,1255 335,1254 340,1253 345,1251 349,1249 353,1246 357,1243 361,1240 364,1236 367,1232 370,1228 372,1224 373,1219 375,1214 375,1209 376,1204 376,1091 456,1145 510,1109 463,1063 421,1015 384,965 351,915 322,865 297,814 276,763 258,712 231,614 214,522 206,438 203,366 Z"/>
        </g>
       </g>
      </g>
     </g>
    </g>
   </g>
  </g>
 </g>
</svg>