<?xml version="1.0" encoding="iso-8859-1"?>
<!-- Generator: Adobe Illustrator 16.0.0, SVG Export Plug-In . SVG Version: 6.00 Build 0)  -->
<!DOCTYPE svg PUBLIC "-//W3C//DTD SVG 1.1//EN" "http://www.w3.org/Graphics/SVG/1.1/DTD/svg11.dtd">
<svg version="1.1" id="Capa_1" xmlns="http://www.w3.org/2000/svg" xmlns:xlink="http://www.w3.org/1999/xlink" x="0px" y="0px"
	 width="48px" height="48px" viewBox="0 0 48 48" style="enable-background:new 0 0 48 48;" xml:space="preserve">
<g>
	<path d="M27.84,0.191c0,0,8.582,5.063,19.905,8.856c0,0,4.019,26.69-19.847,38.761h-0.133C3.907,35.742,7.923,9.048,7.923,9.048
		c11.445-3.726,19.905-8.856,19.905-8.856L27.84,0.191L27.84,0.191z M29.426,14.82c-1.396-0.769-2.996-1.21-4.697-1.21
		c-3.014,0-5.712,1.372-7.496,3.524c-1.789-2.152-4.485-3.524-7.501-3.524c-1.701,0-3.302,0.441-4.698,1.21
		C2.031,16.483,0,19.676,0,23.349c0,1.05,0.17,2.058,0.48,3.002c0.474,2.14,2.042,4.437,4.034,6.629v8.11
		c0,1.326,1.075,2.398,2.399,2.398c1.324,0,2.396-1.074,2.396-2.398v-3.577c0.365,0.302,0.725,0.599,1.081,0.886v7.172
		c0,1.061,0.861,1.92,1.918,1.92c1.063,0,1.922-0.859,1.922-1.92v-4.271c1.781,1.266,3.002,2.033,3.002,2.033
		s2.253-1.418,5.115-3.588v1.188c0,1.325,1.075,2.397,2.398,2.397s2.396-1.072,2.396-2.397v-5.16
		c3.223-2.946,6.15-6.345,6.836-9.421c0.312-0.943,0.479-1.951,0.479-3.002C34.459,19.676,32.43,16.483,29.426,14.82z"/>
</g>
<g>
</g>
<g>
</g>
<g>
</g>
<g>
</g>
<g>
</g>
<g>
</g>
<g>
</g>
<g>
</g>
<g>
</g>
<g>
</g>
<g>
</g>
<g>
</g>
<g>
</g>
<g>
</g>
<g>
</g>
</svg>
