<?xml version="1.0" encoding="iso-8859-1"?>
<!-- Generator: Adobe Illustrator 19.0.0, SVG Export Plug-In . SVG Version: 6.00 Build 0)  -->
<svg version="1.1" id="Layer_1" xmlns="http://www.w3.org/2000/svg" xmlns:xlink="http://www.w3.org/1999/xlink" x="0px" y="0px"
	 viewBox="0 0 503.326 503.326" style="enable-background:new 0 0 503.326 503.326;" xml:space="preserve">
<g>
	<g>
		<g>
			<rect x="199.596" y="86.78" width="104.136" height="52.068"/>
			<rect x="381.834" y="156.203" width="121.492" height="52.068"/>
			<rect x="138.85" y="156.203" width="104.136" height="52.068"/>
			<rect x="321.088" y="225.627" width="104.136" height="52.068"/>
			<rect x="78.105" y="225.627" width="104.136" height="52.068"/>
			<rect x="199.596" y="225.627" width="104.136" height="52.068"/>
			<rect x="0.003" y="156.203" width="121.492" height="52.068"/>
			<rect x="0.003" y="225.627" width="60.746" height="52.068"/>
			<rect x="442.579" y="86.78" width="60.746" height="52.068"/>
			<rect x="0.003" y="364.475" width="60.746" height="52.068"/>
			<rect x="0.003" y="295.051" width="121.492" height="52.068"/>
			<rect x="321.088" y="364.475" width="104.136" height="52.068"/>
			<rect x="381.834" y="295.051" width="121.492" height="52.068"/>
			<rect x="199.596" y="364.475" width="104.136" height="52.068"/>
			<rect x="260.342" y="295.051" width="104.136" height="52.068"/>
			<rect x="78.105" y="86.78" width="104.136" height="52.068"/>
			<path d="M503.323,8.682c0-4.799-3.888-8.678-8.678-8.678H381.832v69.424h121.492V8.682z"/>
			<rect x="442.579" y="225.627" width="60.746" height="52.068"/>
			<rect x="260.342" y="433.898" width="104.136" height="69.424"/>
			<path d="M121.493,0.004H8.679c-4.79,0-8.678,3.879-8.678,8.678v60.746h121.492V0.004z"/>
			<rect x="138.85" y="433.898" width="104.136" height="69.424"/>
			<path d="M381.832,503.326h112.814c4.79,0,8.678-3.879,8.678-8.678v-60.746H381.832V503.326z"/>
			<path d="M0.001,494.648c0,4.799,3.888,8.678,8.678,8.678h112.814v-69.424H0.001V494.648z"/>
			<rect x="442.579" y="364.475" width="60.746" height="52.068"/>
			<rect x="138.85" y="295.051" width="104.136" height="52.068"/>
			<rect x="321.088" y="86.78" width="104.136" height="52.068"/>
			<rect x="260.342" y="156.203" width="104.136" height="52.068"/>
			<rect x="260.342" y="0" width="104.136" height="69.424"/>
			<rect x="0.003" y="86.78" width="60.746" height="52.068"/>
			<rect x="78.105" y="364.475" width="104.136" height="52.068"/>
			<rect x="138.85" y="0" width="104.136" height="69.424"/>
		</g>
	</g>
</g>
<g>
</g>
<g>
</g>
<g>
</g>
<g>
</g>
<g>
</g>
<g>
</g>
<g>
</g>
<g>
</g>
<g>
</g>
<g>
</g>
<g>
</g>
<g>
</g>
<g>
</g>
<g>
</g>
<g>
</g>
</svg>
