<?xml version="1.0" encoding="UTF-8"?>
<!DOCTYPE svg PUBLIC "-//W3C//DTD SVG 1.1//EN" "http://www.w3.org/Graphics/SVG/1.1/DTD/svg11.dtd">
<svg version="1.2" width="5.74mm" height="5.74mm" viewBox="0 0 574 574" preserveAspectRatio="xMidYMid" fill-rule="evenodd" stroke-width="28.222" stroke-linejoin="round" xmlns="http://www.w3.org/2000/svg" xmlns:ooo="http://xml.openoffice.org/svg/export" xmlns:xlink="http://www.w3.org/1999/xlink" xmlns:presentation="http://sun.com/xmlns/staroffice/presentation" xmlns:smil="http://www.w3.org/2001/SMIL20/" xmlns:anim="urn:oasis:names:tc:opendocument:xmlns:animation:1.0" xml:space="preserve">
 <defs class="ClipPathGroup">
  <clipPath id="presentation_clip_path" clipPathUnits="userSpaceOnUse">
   <rect x="0" y="0" width="574" height="574"/>
  </clipPath>
  <clipPath id="presentation_clip_path_shrink" clipPathUnits="userSpaceOnUse">
   <rect x="0" y="0" width="573" height="573"/>
  </clipPath>
 </defs>
 <defs class="TextShapeIndex">
  <g ooo:slide="id1" ooo:id-list="id3"/>
 </defs>
 <defs class="EmbeddedBulletChars">
  <g id="bullet-char-template-57356" transform="scale(0.00048828125,-0.00048828125)">
   <path d="M 580,1141 L 1163,571 580,0 -4,571 580,1141 Z"/>
  </g>
  <g id="bullet-char-template-57354" transform="scale(0.00048828125,-0.00048828125)">
   <path d="M 8,1128 L 1137,1128 1137,0 8,0 8,1128 Z"/>
  </g>
  <g id="bullet-char-template-10146" transform="scale(0.00048828125,-0.00048828125)">
   <path d="M 174,0 L 602,739 174,1481 1456,739 174,0 Z M 1358,739 L 309,1346 659,739 1358,739 Z"/>
  </g>
  <g id="bullet-char-template-10132" transform="scale(0.00048828125,-0.00048828125)">
   <path d="M 2015,739 L 1276,0 717,0 1260,543 174,543 174,936 1260,936 717,1481 1274,1481 2015,739 Z"/>
  </g>
  <g id="bullet-char-template-10007" transform="scale(0.00048828125,-0.00048828125)">
   <path d="M 0,-2 C -7,14 -16,27 -25,37 L 356,567 C 262,823 215,952 215,954 215,979 228,992 255,992 264,992 276,990 289,987 310,991 331,999 354,1012 L 381,999 492,748 772,1049 836,1024 860,1049 C 881,1039 901,1025 922,1006 886,937 835,863 770,784 769,783 710,716 594,584 L 774,223 C 774,196 753,168 711,139 L 727,119 C 717,90 699,76 672,76 641,76 570,178 457,381 L 164,-76 C 142,-110 111,-127 72,-127 30,-127 9,-110 8,-76 1,-67 -2,-52 -2,-32 -2,-23 -1,-13 0,-2 Z"/>
  </g>
  <g id="bullet-char-template-10004" transform="scale(0.00048828125,-0.00048828125)">
   <path d="M 285,-33 C 182,-33 111,30 74,156 52,228 41,333 41,471 41,549 55,616 82,672 116,743 169,778 240,778 293,778 328,747 346,684 L 369,508 C 377,444 397,411 428,410 L 1163,1116 C 1174,1127 1196,1133 1229,1133 1271,1133 1292,1118 1292,1087 L 1292,965 C 1292,929 1282,901 1262,881 L 442,47 C 390,-6 338,-33 285,-33 Z"/>
  </g>
  <g id="bullet-char-template-9679" transform="scale(0.00048828125,-0.00048828125)">
   <path d="M 813,0 C 632,0 489,54 383,161 276,268 223,411 223,592 223,773 276,916 383,1023 489,1130 632,1184 813,1184 992,1184 1136,1130 1245,1023 1353,916 1407,772 1407,592 1407,412 1353,268 1245,161 1136,54 992,0 813,0 Z"/>
  </g>
  <g id="bullet-char-template-8226" transform="scale(0.00048828125,-0.00048828125)">
   <path d="M 346,457 C 273,457 209,483 155,535 101,586 74,649 74,723 74,796 101,859 155,911 209,963 273,989 346,989 419,989 480,963 531,910 582,859 608,796 608,723 608,648 583,586 532,535 482,483 420,457 346,457 Z"/>
  </g>
  <g id="bullet-char-template-8211" transform="scale(0.00048828125,-0.00048828125)">
   <path d="M -4,459 L 1135,459 1135,606 -4,606 -4,459 Z"/>
  </g>
  <g id="bullet-char-template-61548" transform="scale(0.00048828125,-0.00048828125)">
   <path d="M 173,740 C 173,903 231,1043 346,1159 462,1274 601,1332 765,1332 928,1332 1067,1274 1183,1159 1299,1043 1357,903 1357,740 1357,577 1299,437 1183,322 1067,206 928,148 765,148 601,148 462,206 346,322 231,437 173,577 173,740 Z"/>
  </g>
 </defs>
 <defs class="TextEmbeddedBitmaps"/>
 <g>
  <g id="id2" class="Master_Slide">
   <g id="bg-id2" class="Background"/>
   <g id="bo-id2" class="BackgroundObjects"/>
  </g>
 </g>
 <g class="SlideGroup">
  <g>
   <g id="container-id1">
    <g id="id1" class="Slide" clip-path="url(#presentation_clip_path)">
     <g class="Page">
      <g class="Group">
       <g class="com.sun.star.drawing.PolyPolygonShape">
        <g id="id3">
         <rect class="BoundingBox" stroke="none" fill="none" x="93" y="12" width="388" height="549"/>
         <path fill="rgb(255,0,0)" stroke="none" d="M 280,119 L 303,157 261,189 236,149 202,170 180,136 215,115 236,149 280,119 Z M 282,223 L 261,189 226,210 248,244 282,223 Z M 479,148 L 475,157 474,164 472,170 470,176 467,182 465,188 462,193 459,198 455,203 452,208 448,212 445,216 441,219 438,222 434,225 431,228 427,230 420,234 413,237 407,239 400,241 393,243 387,243 381,244 375,243 370,243 365,242 357,241 352,239 350,239 349,239 340,237 331,236 322,236 314,237 306,239 302,240 298,241 294,242 290,244 287,246 284,248 277,252 272,257 266,262 262,267 258,273 254,278 248,289 244,298 241,306 239,312 239,313 237,324 373,545 350,559 108,166 107,166 106,166 105,166 104,166 103,166 102,166 101,166 101,166 100,166 99,165 98,165 97,164 97,164 96,163 95,162 95,162 94,161 94,160 94,159 93,158 93,157 93,156 93,155 93,153 94,152 94,151 94,151 95,150 95,149 96,148 97,147 98,147 117,136 118,135 119,135 120,134 121,134 122,134 123,134 124,134 125,134 125,134 126,135 127,135 128,136 129,136 130,137 130,138 131,139 131,140 132,140 132,141 132,142 132,143 133,144 133,144 133,145 132,146 132,147 132,148 132,149 131,149 131,150 130,151 130,152 136,163 137,162 142,149 148,138 154,127 161,118 168,109 175,102 179,98 183,95 187,92 191,90 198,86 205,83 212,81 219,79 225,78 232,78 237,78 243,79 248,80 252,81 256,82 260,84 265,86 266,86 266,87 267,87 272,90 278,92 283,94 288,96 293,97 298,98 302,98 306,98 310,98 314,98 318,97 321,96 324,95 327,94 330,92 332,91 336,88 338,86 340,84 340,84 351,74 360,63 367,53 373,44 378,35 383,27 388,16 389,15 389,14 390,14 390,13 391,13 392,13 392,13 393,13 393,13 394,13 395,14 395,14 396,15 398,17 399,18 400,20 402,23 403,25 403,26 479,148 Z M 383,45 L 389,54 402,43 392,26 392,27 391,28 390,30 388,34 386,40 385,42 383,45 Z M 236,292 L 230,296 233,301 236,292 Z M 347,229 L 343,222 338,228 340,228 341,228 343,228 345,228 346,229 347,229 Z M 381,206 L 362,176 400,149 379,115 341,142 319,106 316,107 312,107 308,108 306,108 304,108 280,119 266,97 265,96 264,96 264,96 264,95 264,95 263,95 263,95 263,95 263,95 262,95 262,95 262,95 262,95 262,95 261,95 261,94 261,94 261,94 261,94 261,94 260,94 259,93 256,92 253,91 215,115 202,94 200,95 199,95 199,95 198,96 197,97 196,97 196,98 192,100 189,102 186,105 183,107 180,110 177,113 171,120 180,136 150,155 149,156 149,157 148,159 147,160 147,161 146,162 146,164 165,193 202,170 226,210 190,233 211,267 248,244 257,259 259,256 261,253 264,251 266,249 269,246 272,244 279,240 280,239 281,238 284,237 286,236 287,235 288,235 282,223 324,192 303,157 341,142 362,176 324,192 342,221 381,206 Z M 465,144 L 465,143 451,155 433,125 447,115 424,78 411,91 389,54 369,67 366,70 363,73 360,77 357,80 379,115 412,91 433,125 400,149 419,180 382,208 397,233 403,231 407,230 410,229 413,227 416,226 419,224 422,222 424,220 427,219 429,218 431,216 433,215 434,213 438,210 419,180 451,155 462,173 465,144 Z"/>
        </g>
       </g>
      </g>
     </g>
    </g>
   </g>
  </g>
 </g>
</svg>