<?xml version="1.0" encoding="iso-8859-1"?>
<!-- Generator: Adobe Illustrator 16.0.0, SVG Export Plug-In . SVG Version: 6.00 Build 0)  -->
<!DOCTYPE svg PUBLIC "-//W3C//DTD SVG 1.1//EN" "http://www.w3.org/Graphics/SVG/1.1/DTD/svg11.dtd">
<svg version="1.1" id="Capa_1" xmlns="http://www.w3.org/2000/svg" xmlns:xlink="http://www.w3.org/1999/xlink" x="0px" y="0px"
	 width="635.635px" height="635.635px" viewBox="0 0 635.635 635.635" style="enable-background:new 0 0 635.635 635.635;"
	 xml:space="preserve">
<g>
	<path d="M317.817,297.05c65.175,0,118.203-66.625,118.203-148.525C436.02,66.625,382.993,0,317.817,0
		C252.641,0,199.62,66.625,199.62,148.525C199.62,230.425,252.641,297.05,317.817,297.05z"/>
	<path d="M67.059,501.449h58.075c5.516,0,9.988-4.478,9.988-9.988c0-5.521-4.472-9.989-9.988-9.989H77.047v-93.967
		c70.663-4.556,134.551-55.768,159.133-77.989c21.914,26.328,51.139,41.213,81.637,41.213c30.498,0,59.723-14.886,81.642-41.213
		c24.582,22.221,88.465,73.443,159.128,77.989v93.967h-55.241c-5.521,0-9.988,4.468-9.988,9.989c0,5.511,4.468,9.988,9.988,9.988
		h65.23c5.511,0,9.988-4.478,9.988-9.988V377.838c0-5.521-4.478-9.988-9.988-9.988c-78.945,0-154.953-72.088-163.362-80.311
		c-2.087-2.049-4.994-3.068-7.901-2.81c-2.926,0.273-5.58,1.81-7.258,4.209c-18.66,26.567-44.988,41.813-72.238,41.813
		s-53.578-15.237-72.238-41.813c-1.678-2.399-4.336-3.936-7.252-4.209c-2.917-0.259-5.804,0.761-7.911,2.81
		c-8.399,8.223-84.417,80.311-163.357,80.311c-5.511,0-9.989,4.467-9.989,9.988v113.623
		C57.07,496.972,61.547,501.449,67.059,501.449z"/>
	<path d="M272.619,469.259v89.08h89.07v-89.08h-11.218h-66.634H272.619z M298.411,505.722c0-5.511,4.472-9.989,9.988-9.989h18.847
		c5.511,0,9.988,4.479,9.988,9.989v18.847c0,5.521-4.478,9.988-9.988,9.988h-0.107v6.165c0,5.521-4.478,9.989-9.989,9.989
		c-5.516,0-9.988-4.469-9.988-9.989v-6.409c-4.907-0.634-8.75-4.672-8.75-9.744V505.722z"/>
	<path d="M181.179,498.991c0,75.335,61.293,136.644,136.639,136.644c75.34,0,136.638-61.299,136.638-136.644
		c0-75.346-61.298-136.634-136.638-136.634C242.482,362.357,181.179,423.646,181.179,498.991z M360.459,420.914v15.472
		c0,5.521-4.477,9.988-9.988,9.988c-5.521,0-9.988-4.468-9.988-9.988v-5.482h-46.657v18.378h56.646h21.207
		c5.511,0,9.988,4.487,9.988,9.988v109.058c0,5.512-4.478,9.989-9.988,9.989H262.63c-5.517,0-9.989-4.478-9.989-9.989V459.27
		c0-5.501,4.473-9.988,9.989-9.988h11.218v-28.367c0-5.521,4.473-9.988,9.989-9.988h66.634
		C355.983,410.926,360.459,415.384,360.459,420.914z"/>
</g>
<g>
</g>
<g>
</g>
<g>
</g>
<g>
</g>
<g>
</g>
<g>
</g>
<g>
</g>
<g>
</g>
<g>
</g>
<g>
</g>
<g>
</g>
<g>
</g>
<g>
</g>
<g>
</g>
<g>
</g>
</svg>
