<?xml version="1.0" encoding="UTF-8"?>
<!DOCTYPE svg PUBLIC "-//W3C//DTD SVG 1.1//EN" "http://www.w3.org/Graphics/SVG/1.1/DTD/svg11.dtd">
<svg version="1.2" width="12.72mm" height="12.72mm" viewBox="0 0 1272 1272" preserveAspectRatio="xMidYMid" fill-rule="evenodd" stroke-width="28.222" stroke-linejoin="round" xmlns="http://www.w3.org/2000/svg" xmlns:ooo="http://xml.openoffice.org/svg/export" xmlns:xlink="http://www.w3.org/1999/xlink" xmlns:presentation="http://sun.com/xmlns/staroffice/presentation" xmlns:smil="http://www.w3.org/2001/SMIL20/" xmlns:anim="urn:oasis:names:tc:opendocument:xmlns:animation:1.0" xml:space="preserve">
 <defs class="ClipPathGroup">
  <clipPath id="presentation_clip_path" clipPathUnits="userSpaceOnUse">
   <rect x="0" y="0" width="1272" height="1272"/>
  </clipPath>
  <clipPath id="presentation_clip_path_shrink" clipPathUnits="userSpaceOnUse">
   <rect x="1" y="1" width="1270" height="1270"/>
  </clipPath>
 </defs>
 <defs class="TextShapeIndex">
  <g ooo:slide="id1" ooo:id-list="id3"/>
 </defs>
 <defs class="EmbeddedBulletChars">
  <g id="bullet-char-template-57356" transform="scale(0.00048828125,-0.00048828125)">
   <path d="M 580,1141 L 1163,571 580,0 -4,571 580,1141 Z"/>
  </g>
  <g id="bullet-char-template-57354" transform="scale(0.00048828125,-0.00048828125)">
   <path d="M 8,1128 L 1137,1128 1137,0 8,0 8,1128 Z"/>
  </g>
  <g id="bullet-char-template-10146" transform="scale(0.00048828125,-0.00048828125)">
   <path d="M 174,0 L 602,739 174,1481 1456,739 174,0 Z M 1358,739 L 309,1346 659,739 1358,739 Z"/>
  </g>
  <g id="bullet-char-template-10132" transform="scale(0.00048828125,-0.00048828125)">
   <path d="M 2015,739 L 1276,0 717,0 1260,543 174,543 174,936 1260,936 717,1481 1274,1481 2015,739 Z"/>
  </g>
  <g id="bullet-char-template-10007" transform="scale(0.00048828125,-0.00048828125)">
   <path d="M 0,-2 C -7,14 -16,27 -25,37 L 356,567 C 262,823 215,952 215,954 215,979 228,992 255,992 264,992 276,990 289,987 310,991 331,999 354,1012 L 381,999 492,748 772,1049 836,1024 860,1049 C 881,1039 901,1025 922,1006 886,937 835,863 770,784 769,783 710,716 594,584 L 774,223 C 774,196 753,168 711,139 L 727,119 C 717,90 699,76 672,76 641,76 570,178 457,381 L 164,-76 C 142,-110 111,-127 72,-127 30,-127 9,-110 8,-76 1,-67 -2,-52 -2,-32 -2,-23 -1,-13 0,-2 Z"/>
  </g>
  <g id="bullet-char-template-10004" transform="scale(0.00048828125,-0.00048828125)">
   <path d="M 285,-33 C 182,-33 111,30 74,156 52,228 41,333 41,471 41,549 55,616 82,672 116,743 169,778 240,778 293,778 328,747 346,684 L 369,508 C 377,444 397,411 428,410 L 1163,1116 C 1174,1127 1196,1133 1229,1133 1271,1133 1292,1118 1292,1087 L 1292,965 C 1292,929 1282,901 1262,881 L 442,47 C 390,-6 338,-33 285,-33 Z"/>
  </g>
  <g id="bullet-char-template-9679" transform="scale(0.00048828125,-0.00048828125)">
   <path d="M 813,0 C 632,0 489,54 383,161 276,268 223,411 223,592 223,773 276,916 383,1023 489,1130 632,1184 813,1184 992,1184 1136,1130 1245,1023 1353,916 1407,772 1407,592 1407,412 1353,268 1245,161 1136,54 992,0 813,0 Z"/>
  </g>
  <g id="bullet-char-template-8226" transform="scale(0.00048828125,-0.00048828125)">
   <path d="M 346,457 C 273,457 209,483 155,535 101,586 74,649 74,723 74,796 101,859 155,911 209,963 273,989 346,989 419,989 480,963 531,910 582,859 608,796 608,723 608,648 583,586 532,535 482,483 420,457 346,457 Z"/>
  </g>
  <g id="bullet-char-template-8211" transform="scale(0.00048828125,-0.00048828125)">
   <path d="M -4,459 L 1135,459 1135,606 -4,606 -4,459 Z"/>
  </g>
  <g id="bullet-char-template-61548" transform="scale(0.00048828125,-0.00048828125)">
   <path d="M 173,740 C 173,903 231,1043 346,1159 462,1274 601,1332 765,1332 928,1332 1067,1274 1183,1159 1299,1043 1357,903 1357,740 1357,577 1299,437 1183,322 1067,206 928,148 765,148 601,148 462,206 346,322 231,437 173,577 173,740 Z"/>
  </g>
 </defs>
 <defs class="TextEmbeddedBitmaps"/>
 <g>
  <g id="id2" class="Master_Slide">
   <g id="bg-id2" class="Background"/>
   <g id="bo-id2" class="BackgroundObjects"/>
  </g>
 </g>
 <g class="SlideGroup">
  <g>
   <g id="container-id1">
    <g id="id1" class="Slide" clip-path="url(#presentation_clip_path)">
     <g class="Page">
      <g class="Group">
       <g class="com.sun.star.drawing.PolyPolygonShape">
        <g id="id3">
         <rect class="BoundingBox" stroke="none" fill="none" x="0" y="1" width="1272" height="1270"/>
         <path fill="rgb(255,0,0)" stroke="none" d="M 792,137 L 757,105 720,78 680,54 639,35 596,20 553,10 509,3 464,1 420,3 375,10 332,20 289,35 248,54 209,78 171,105 136,137 104,172 77,210 53,249 34,290 19,333 9,376 2,421 0,465 2,510 9,554 19,597 34,640 53,681 77,721 104,758 136,793 168,823 203,849 239,871 276,890 315,905 354,916 395,924 436,928 476,928 517,925 558,919 598,909 637,895 675,878 711,857 746,832 806,892 806,898 805,903 805,909 806,914 806,920 807,926 809,931 810,937 812,942 814,947 817,952 820,957 823,962 826,967 830,972 834,976 1100,1240 1108,1247 1116,1253 1124,1258 1133,1262 1142,1265 1152,1267 1161,1269 1171,1269 1180,1269 1190,1267 1199,1265 1208,1262 1217,1258 1225,1253 1233,1247 1241,1240 1247,1233 1253,1226 1258,1218 1262,1210 1265,1202 1267,1194 1269,1185 1270,1177 1270,1163 1269,1154 1267,1145 1265,1137 1262,1129 1258,1121 1253,1113 1247,1106 1241,1099 975,835 971,831 966,827 961,824 956,821 951,818 946,815 941,813 936,811 930,810 925,808 919,807 913,807 908,806 902,806 897,807 891,807 831,747 856,712 877,676 894,638 908,599 918,559 924,518 927,477 927,437 923,396 915,355 904,316 889,277 870,240 848,204 822,169 792,137 Z M 220,708 L 196,682 176,655 159,625 144,595 133,563 126,531 121,498 119,465 121,432 125,399 133,367 144,335 158,304 176,275 196,247 220,221 246,197 274,177 303,159 334,145 366,134 398,126 431,122 464,120 497,122 530,127 562,134 594,145 624,160 654,177 681,197 707,221 731,247 752,275 769,304 783,335 794,367 802,399 807,432 809,465 807,498 802,531 794,563 783,595 769,625 752,655 731,682 707,708 681,732 654,753 624,770 594,784 562,795 530,803 497,808 464,810 431,808 398,803 366,795 334,784 303,770 274,753 246,732 220,708 Z M 725,389 L 725,395 725,401 725,407 724,412 723,418 722,424 720,429 718,435 716,444 713,452 709,461 705,470 694,489 682,507 667,525 651,543 634,560 616,578 616,655 615,659 615,663 614,666 613,670 611,673 609,676 607,679 605,681 602,684 600,686 597,688 594,689 590,691 587,692 583,692 580,692 576,692 572,692 569,691 565,690 562,688 559,686 557,684 554,682 552,679 550,677 548,674 546,671 545,667 544,664 544,660 544,656 544,638 513,661 488,678 466,692 421,662 421,726 421,729 420,732 419,735 418,738 417,740 416,743 414,745 412,747 410,749 408,751 405,753 403,754 400,755 398,756 395,756 392,756 389,756 386,756 383,755 380,754 378,753 375,751 373,750 371,748 369,746 368,744 366,741 365,739 364,736 363,733 363,730 363,727 362,619 346,606 346,659 346,663 345,667 344,670 343,674 341,677 340,680 338,682 335,685 333,687 330,689 327,691 324,693 320,694 317,695 313,695 310,695 306,695 302,695 299,694 296,693 292,691 289,689 286,687 284,685 281,682 279,680 277,677 276,674 274,670 274,667 273,663 273,659 273,537 262,524 251,512 242,499 233,486 226,474 220,461 215,449 211,437 209,431 208,426 206,420 205,414 205,409 204,403 204,397 204,391 204,380 205,370 207,361 209,351 212,341 216,332 220,324 225,315 230,307 236,299 242,292 249,285 256,278 263,272 271,267 280,262 288,258 296,254 305,251 313,248 322,246 332,244 341,243 351,243 359,243 367,244 376,245 384,247 391,249 399,251 407,254 414,257 421,261 428,265 435,269 441,274 454,284 465,296 470,290 475,284 481,279 487,274 494,269 500,264 507,260 514,257 521,254 529,251 536,248 544,246 552,244 561,243 569,242 578,242 587,242 597,243 606,245 615,247 624,249 632,252 640,256 648,260 657,265 665,270 673,276 680,283 687,290 693,297 699,305 704,313 709,322 713,330 717,339 720,349 722,359 724,368 725,378 725,389 Z"/>
        </g>
       </g>
      </g>
     </g>
    </g>
   </g>
  </g>
 </g>
</svg>