<?xml version="1.0" encoding="UTF-8"?>
<!DOCTYPE svg PUBLIC "-//W3C//DTD SVG 1.1//EN" "http://www.w3.org/Graphics/SVG/1.1/DTD/svg11.dtd">
<svg version="1.2" width="17.6mm" height="17.6mm" viewBox="0 0 1760 1760" preserveAspectRatio="xMidYMid" fill-rule="evenodd" stroke-width="28.222" stroke-linejoin="round" xmlns="http://www.w3.org/2000/svg" xmlns:ooo="http://xml.openoffice.org/svg/export" xmlns:xlink="http://www.w3.org/1999/xlink" xmlns:presentation="http://sun.com/xmlns/staroffice/presentation" xmlns:smil="http://www.w3.org/2001/SMIL20/" xmlns:anim="urn:oasis:names:tc:opendocument:xmlns:animation:1.0" xml:space="preserve">
 <defs class="ClipPathGroup">
  <clipPath id="presentation_clip_path" clipPathUnits="userSpaceOnUse">
   <rect x="0" y="0" width="1760" height="1760"/>
  </clipPath>
  <clipPath id="presentation_clip_path_shrink" clipPathUnits="userSpaceOnUse">
   <rect x="1" y="1" width="1757" height="1757"/>
  </clipPath>
 </defs>
 <defs class="TextShapeIndex">
  <g ooo:slide="id1" ooo:id-list="id3 id4"/>
 </defs>
 <defs class="EmbeddedBulletChars">
  <g id="bullet-char-template-57356" transform="scale(0.00048828125,-0.00048828125)">
   <path d="M 580,1141 L 1163,571 580,0 -4,571 580,1141 Z"/>
  </g>
  <g id="bullet-char-template-57354" transform="scale(0.00048828125,-0.00048828125)">
   <path d="M 8,1128 L 1137,1128 1137,0 8,0 8,1128 Z"/>
  </g>
  <g id="bullet-char-template-10146" transform="scale(0.00048828125,-0.00048828125)">
   <path d="M 174,0 L 602,739 174,1481 1456,739 174,0 Z M 1358,739 L 309,1346 659,739 1358,739 Z"/>
  </g>
  <g id="bullet-char-template-10132" transform="scale(0.00048828125,-0.00048828125)">
   <path d="M 2015,739 L 1276,0 717,0 1260,543 174,543 174,936 1260,936 717,1481 1274,1481 2015,739 Z"/>
  </g>
  <g id="bullet-char-template-10007" transform="scale(0.00048828125,-0.00048828125)">
   <path d="M 0,-2 C -7,14 -16,27 -25,37 L 356,567 C 262,823 215,952 215,954 215,979 228,992 255,992 264,992 276,990 289,987 310,991 331,999 354,1012 L 381,999 492,748 772,1049 836,1024 860,1049 C 881,1039 901,1025 922,1006 886,937 835,863 770,784 769,783 710,716 594,584 L 774,223 C 774,196 753,168 711,139 L 727,119 C 717,90 699,76 672,76 641,76 570,178 457,381 L 164,-76 C 142,-110 111,-127 72,-127 30,-127 9,-110 8,-76 1,-67 -2,-52 -2,-32 -2,-23 -1,-13 0,-2 Z"/>
  </g>
  <g id="bullet-char-template-10004" transform="scale(0.00048828125,-0.00048828125)">
   <path d="M 285,-33 C 182,-33 111,30 74,156 52,228 41,333 41,471 41,549 55,616 82,672 116,743 169,778 240,778 293,778 328,747 346,684 L 369,508 C 377,444 397,411 428,410 L 1163,1116 C 1174,1127 1196,1133 1229,1133 1271,1133 1292,1118 1292,1087 L 1292,965 C 1292,929 1282,901 1262,881 L 442,47 C 390,-6 338,-33 285,-33 Z"/>
  </g>
  <g id="bullet-char-template-9679" transform="scale(0.00048828125,-0.00048828125)">
   <path d="M 813,0 C 632,0 489,54 383,161 276,268 223,411 223,592 223,773 276,916 383,1023 489,1130 632,1184 813,1184 992,1184 1136,1130 1245,1023 1353,916 1407,772 1407,592 1407,412 1353,268 1245,161 1136,54 992,0 813,0 Z"/>
  </g>
  <g id="bullet-char-template-8226" transform="scale(0.00048828125,-0.00048828125)">
   <path d="M 346,457 C 273,457 209,483 155,535 101,586 74,649 74,723 74,796 101,859 155,911 209,963 273,989 346,989 419,989 480,963 531,910 582,859 608,796 608,723 608,648 583,586 532,535 482,483 420,457 346,457 Z"/>
  </g>
  <g id="bullet-char-template-8211" transform="scale(0.00048828125,-0.00048828125)">
   <path d="M -4,459 L 1135,459 1135,606 -4,606 -4,459 Z"/>
  </g>
  <g id="bullet-char-template-61548" transform="scale(0.00048828125,-0.00048828125)">
   <path d="M 173,740 C 173,903 231,1043 346,1159 462,1274 601,1332 765,1332 928,1332 1067,1274 1183,1159 1299,1043 1357,903 1357,740 1357,577 1299,437 1183,322 1067,206 928,148 765,148 601,148 462,206 346,322 231,437 173,577 173,740 Z"/>
  </g>
 </defs>
 <defs class="TextEmbeddedBitmaps"/>
 <g>
  <g id="id2" class="Master_Slide">
   <g id="bg-id2" class="Background"/>
   <g id="bo-id2" class="BackgroundObjects"/>
  </g>
 </g>
 <g class="SlideGroup">
  <g>
   <g id="container-id1">
    <g id="id1" class="Slide" clip-path="url(#presentation_clip_path)">
     <g class="Page">
      <g class="Graphic">
       <g id="id3">
        <rect class="BoundingBox" stroke="none" fill="none" x="72" y="72" width="1616" height="1616"/>
        <path fill="rgb(255,0,0)" stroke="none" d="M 1676,577 C 1637,643 1599,710 1560,776 1498,791 1437,806 1376,821 1371,885 1361,940 1348,989 1380,1019 1412,1050 1444,1081 1479,1081 1515,1081 1551,1081 1588,1081 1618,1111 1618,1148 1618,1185 1588,1215 1551,1215 1497,1215 1443,1215 1389,1215 1358,1185 1328,1155 1296,1125 1273,1171 1248,1206 1228,1228 1227,1229 1226,1231 1224,1232 1217,1285 1191,1339 1145,1395 1184,1430 1222,1466 1261,1501 1288,1527 1290,1569 1264,1596 1239,1624 1197,1625 1169,1600 1129,1562 1088,1525 1048,1487 951,1546 821,1525 746,1489 718,1523 691,1558 663,1593 640,1622 598,1626 569,1603 540,1580 535,1538 558,1509 587,1473 615,1437 644,1401 597,1344 569,1289 561,1232 559,1231 557,1230 556,1228 535,1204 509,1169 485,1119 445,1151 405,1183 366,1215 313,1215 261,1215 208,1215 171,1215 141,1185 141,1148 141,1111 171,1081 208,1081 245,1081 282,1081 319,1081 357,1049 396,1018 435,987 423,940 414,888 409,828 339,811 269,793 199,776 160,710 122,643 83,577 64,546 75,504 107,486 117,479 129,476 141,476 164,476 186,488 199,510 228,559 257,609 286,659 327,669 367,679 408,689 414,642 431,563 481,470 434,450 388,430 341,411 321,350 301,290 281,229 269,194 288,156 323,144 330,142 337,141 344,141 373,141 399,158 408,187 422,228 436,269 450,311 485,326 520,341 555,356 578,327 604,296 635,266 645,255 656,245 667,234 727,174 807,141 892,141 977,141 1057,174 1118,234 1128,245 1139,255 1150,266 1179,296 1205,325 1227,354 1254,340 1281,327 1308,313 1322,271 1336,229 1350,187 1360,158 1386,141 1414,141 1421,141 1428,142 1435,144 1471,156 1490,194 1478,229 1458,289 1438,348 1418,408 1379,428 1340,447 1301,467 1350,557 1369,635 1375,683 1408,675 1440,667 1472,659 1502,609 1531,559 1560,510 1573,488 1595,476 1618,476 1630,476 1641,479 1652,486 1673,498 1685,520 1685,542 1685,543 1685,544 1685,545 1685,556 1682,567 1676,577 L 1676,577 Z M 1093,1206 C 1091,1190 1083,1143 1054,1099 1054,1098 1053,1098 1053,1097 1046,1087 1038,1077 1029,1068 1028,1067 1027,1066 1026,1065 1017,1056 1006,1048 994,1040 993,1039 991,1039 990,1038 977,1031 964,1025 948,1021 947,1021 945,1020 944,1020 927,1016 909,1014 889,1014 870,1014 854,1016 838,1019 836,1020 834,1020 831,1021 818,1024 807,1029 796,1035 792,1036 789,1038 785,1040 776,1045 768,1051 761,1058 758,1061 754,1064 751,1067 745,1074 739,1081 734,1088 731,1091 729,1095 727,1098 722,1106 718,1114 714,1122 713,1124 712,1126 711,1128 699,1158 694,1186 692,1202 693,1246 728,1302 791,1361 804,1372 854,1390 905,1390 938,1390 970,1383 993,1361 1057,1301 1092,1244 1093,1207 1093,1207 1093,1207 1093,1206 L 1093,1206 Z"/>
       </g>
      </g>
      <g class="Group">
       <g class="com.sun.star.drawing.ClosedBezierShape">
        <g id="id4">
         <rect class="BoundingBox" stroke="none" fill="none" x="171" y="171" width="1403" height="1403"/>
         <path fill="rgb(255,255,255)" stroke="none" d="M 872,172 C 848,173 824,174 800,176 777,179 754,183 731,186 709,192 686,198 664,204 643,211 621,219 600,227 579,237 559,247 539,257 519,268 500,280 481,292 463,305 445,319 427,332 410,347 394,362 377,377 362,394 347,410 332,427 319,445 305,463 292,481 280,500 268,519 257,538 247,559 237,579 227,600 219,621 211,642 204,664 198,686 192,708 186,731 183,754 179,777 176,800 174,824 173,848 172,872 173,895 174,919 176,943 179,966 183,989 186,1012 192,1035 198,1057 204,1079 211,1101 219,1122 227,1144 237,1164 247,1185 257,1205 268,1224 280,1243 292,1263 305,1281 319,1299 332,1317 347,1333 362,1350 377,1366 394,1382 410,1397 427,1412 445,1425 463,1439 481,1452 500,1464 519,1476 538,1487 559,1497 579,1507 600,1517 621,1525 642,1533 664,1540 686,1546 708,1552 731,1558 754,1561 777,1565 800,1568 824,1570 848,1571 872,1572 895,1571 919,1570 943,1568 966,1565 989,1561 1012,1558 1035,1552 1057,1546 1079,1540 1101,1533 1122,1525 1144,1517 1164,1507 1185,1497 1205,1487 1224,1476 1243,1464 1263,1452 1281,1439 1299,1425 1317,1412 1333,1397 1350,1382 1366,1366 1382,1350 1397,1333 1412,1317 1425,1299 1439,1281 1452,1263 1464,1243 1476,1224 1487,1205 1497,1185 1507,1164 1517,1144 1525,1122 1533,1101 1540,1079 1546,1057 1552,1035 1558,1012 1561,989 1565,966 1568,943 1570,919 1571,895 1572,872 1571,848 1570,824 1568,800 1565,777 1561,754 1558,731 1552,708 1546,686 1540,664 1533,642 1525,621 1517,600 1507,579 1497,559 1487,538 1476,519 1464,500 1452,481 1439,463 1425,445 1412,427 1397,410 1382,394 1367,377 1350,362 1333,347 1317,332 1299,319 1281,305 1263,292 1244,280 1224,268 1205,257 1185,247 1164,237 1144,227 1123,219 1101,211 1080,204 1057,198 1035,192 1013,186 989,183 966,179 943,176 919,174 895,173 872,172 Z M 300,872 C 301,852 302,833 303,813 306,794 309,775 312,757 317,738 321,720 326,702 333,684 339,667 345,649 353,633 361,616 369,600 379,584 389,568 398,552 409,538 420,523 431,508 443,495 456,481 468,468 481,456 495,443 508,431 523,420 538,409 552,398 568,389 584,379 600,369 616,361 633,353 649,345 667,339 684,333 702,326 720,321 738,317 757,312 775,309 794,306 813,303 833,302 852,301 872,300 889,301 907,302 924,303 941,305 959,308 976,310 992,314 1009,318 1026,321 1042,327 1058,332 1074,337 1089,344 1104,350 1120,357 1134,365 1149,373 1164,381 1177,390 1191,399 1205,408 1218,418 1231,428 1244,439 976,707 707,976 439,1244 428,1231 418,1218 408,1205 399,1191 390,1177 381,1164 373,1149 365,1134 357,1120 350,1104 344,1089 337,1074 332,1058 327,1042 321,1026 318,1009 314,992 310,976 308,959 305,941 303,924 302,907 301,889 300,872 Z M 872,1444 C 856,1443 840,1442 825,1442 809,1440 794,1438 778,1436 764,1433 749,1430 734,1427 719,1422 705,1418 690,1414 676,1408 662,1403 648,1398 635,1391 621,1385 608,1378 595,1371 582,1364 569,1356 557,1348 545,1340 532,1331 799,1065 1065,799 1331,532 1340,545 1348,557 1356,569 1364,582 1371,595 1378,608 1385,621 1391,635 1398,648 1403,662 1408,676 1414,690 1418,705 1422,719 1427,734 1430,749 1433,764 1436,779 1438,794 1440,810 1442,825 1442,841 1443,857 1444,872 1443,892 1442,911 1441,931 1438,950 1435,969 1432,987 1427,1006 1423,1024 1418,1042 1411,1060 1405,1077 1399,1095 1391,1111 1383,1128 1375,1144 1365,1160 1355,1176 1346,1192 1335,1206 1324,1221 1313,1236 1301,1249 1288,1263 1276,1276 1262,1288 1249,1301 1235,1313 1221,1324 1206,1335 1191,1346 1176,1355 1160,1365 1144,1375 1128,1383 1111,1391 1094,1399 1077,1405 1059,1411 1042,1418 1023,1423 1005,1427 987,1432 968,1435 949,1438 930,1441 911,1442 891,1443 872,1444 Z"/>
        </g>
       </g>
      </g>
     </g>
    </g>
   </g>
  </g>
 </g>
</svg>